<?xml version="1.0" encoding="utf-8"?>
<!-- Generator: Adobe Illustrator 21.0.0, SVG Export Plug-In . SVG Version: 6.00 Build 0)  -->
<svg version="1.2" baseProfile="tiny" id="plant_back"
	 xmlns="http://www.w3.org/2000/svg" xmlns:xlink="http://www.w3.org/1999/xlink" x="0px" y="0px" viewBox="0 0 982 550"
	 overflow="scroll" xml:space="preserve">
<g>
	<g>
		<path fill="#BCCD30" d="M217.7,264.8c-2-2.1-5.1-3-9.1-2.8c-4,0.2-8.9,1.5-14.1,3.9c-10.5,4.8-22.5,14-32.1,25.3
			c-2.4,2.8-4.8,5.7-6.9,8.7c-2.1,3-4.1,6.1-5.8,9.1c-3.4,6.2-6.1,12.4-7.5,18.3c-1.5,5.8-1.7,11.4-0.7,16c1,4.7,3.4,8.5,7.4,11.3
			c1.4,1,3,1.8,4.9,2.5c1,0.4,2.2,0.7,3.3,1c2.6,1,5.2,0.2,7.9-1.9c2.7-2.1,5.3-5.5,8.1-9.8c5.5-8.6,11.3-20.5,17.4-32.6
			c6-12.2,12.3-24.2,17.6-33.2C213.2,271.5,217.3,265.4,217.7,264.8z"/>
		<path fill="#8B9F1C" d="M148.9,354.5c-5.6,13.8-10.2,28.4-13.6,42.6c-3.4,14.2-5.5,27.9-6.8,39.9c-2.5,24.1-1.5,41.4-1.5,43.4
			c0,1.4,1.2,2.5,2.6,2.6l0.2,0c1.5-0.1,2.7-1.3,2.6-2.8c0-0.1,0-1.2-0.1-3.2c0-1-0.1-2.2-0.1-3.6c0-0.7,0-1.5,0-2.3
			c0-0.8,0-1.7,0-2.5c0-1.8,0.1-3.8,0.1-5.9c0-1.1,0-2.2,0.1-3.3c0.1-1.2,0.1-2.3,0.2-3.6c0.1-2.5,0.3-5.1,0.4-7.8
			c0.2-2.7,0.5-5.6,0.8-8.6c1.2-11.9,3.2-25.6,6.6-39.7c3.3-14.2,7.9-28.8,13.4-42.6C151.9,356.3,150.3,355.5,148.9,354.5z"/>
	</g>
	<g>
		<path fill="#8DB936" d="M222.8,352c-0.6-1.9-2.1-3.5-4.6-4.7c-2.5-1.2-5.8-1.7-9.8-1.6c-4,0.2-8.5,1.3-13.1,3.2
			c-4.6,1.9-9.2,4.8-13.3,8.2c-8.2,6.8-14.4,16-16.6,24c-1.1,4-1.4,7.8-0.7,11c0.7,3.2,2.4,5.8,5.2,7.8c1,0.7,2.1,1.3,3.4,1.8
			c0.7,0.3,1.5,0.5,2.3,0.8c3.6,1.4,7.3-2,11-7.3c0.9-1.4,1.9-2.8,2.8-4.4c0.5-0.8,1-1.5,1.5-2.4c0.5-0.8,1-1.6,1.5-2.5
			c2-3.3,4.2-6.8,6.6-10.2c4.6-6.8,10-13.1,14.8-17.1c1.2-1.1,2.3-1.9,3.3-2.8c1-0.8,2-1.4,2.8-2C221.6,352.8,222.6,352.1,222.8,352
			z"/>
		<path fill="#65901F" d="M169.9,399.9c-3.8,9.2-6.9,18.9-9.8,28.2c-2.9,9.3-5.7,18.1-8.4,25.8c-5.4,15.4-10,26.2-10.5,27.5
			c-0.4,0.9,0,1.9,0.9,2.4l0.1,0.1c1,0.4,2.1-0.1,2.5-1c0.1-0.2,1.2-2.9,3-7.5c1.8-4.6,4.4-11.2,7.1-19c2.8-7.8,5.7-16.8,8.6-26.3
			c2.9-9.4,6-19.2,9.8-28.4C172,401.2,170.9,400.6,169.9,399.9z"/>
	</g>
	<g>
		<path fill="#969F3C" d="M278.8,242.1c-1.3-2.6-3.9-4.4-8-5.2c-1.1-0.2-2.1-0.3-3.3-0.3c-1.2,0-2.4,0.1-3.8,0.2
			c-0.7,0.1-1.4,0.2-2,0.3c-0.7,0.1-1.4,0.3-2.1,0.5c-1.4,0.4-3,0.8-4.5,1.4c-6.2,2.2-12.6,6.3-18.8,11.5
			c-6.1,5.2-11.8,11.5-16.8,17.9c-5,6.4-9.3,13-12.9,19.1c-3.6,6.1-6.5,11.6-8.9,17.2c-4.7,11.1-6.1,21.7,0,29.2
			c1.1,1.3,2.4,2.6,4,3.7c0.9,0.6,1.9,1.3,3,1.8c2.3,1.6,5.2,1.3,8.6-0.5c3.4-1.8,7.2-5.2,11.4-9.9c1-1.2,2.1-2.4,3.1-3.7
			c1.1-1.3,2.1-2.7,3.2-4.2c1.1-1.5,2.1-3,3.2-4.6c1.1-1.6,2.1-3.3,3.1-5c4-6.8,7.6-14.1,10.9-21.1c3.3-7,6.4-13.8,9.5-19.8
			c3.1-6,6.2-11.2,9.1-15.4c0.8-1,1.5-2,2.2-3c0.7-0.9,1.5-1.7,2.1-2.5c0.3-0.4,0.7-0.8,1-1.2c0.3-0.3,0.7-0.7,1-1
			c0.6-0.7,1.2-1.3,1.8-1.8c0.5-0.6,1.1-1,1.5-1.4c0.5-0.4,0.9-0.8,1.2-1.1C278.2,242.6,278.7,242.2,278.8,242.1z"/>
		<path fill="#6F7C23" d="M197.7,333.9c-4.9,6.6-9.9,13.4-14.4,20.3c-2.3,3.5-4.5,7-6.5,10.6c-1.1,1.8-2,3.6-3,5.4
			c-1,1.8-1.9,3.6-2.8,5.4c-7.1,14.5-11.9,29.2-15.5,42.1c-3.5,13-5.9,24.3-7.6,32.6c-1.7,8.3-2.6,13.6-2.8,14.8
			c-0.3,1.6,0.6,3,1.9,3.4l0.2,0c1.5,0.2,2.9-0.9,3.2-2.6c0.1-0.3,0.9-5.1,2.5-13c1.6-7.9,3.8-19.1,7.3-31.9
			c3.4-12.8,8.1-27.4,15-41.8c1.7-3.6,3.6-7.2,5.6-10.7c2-3.5,4.2-7,6.4-10.5c4.5-6.9,9.5-13.8,14.5-20.5
			C200.2,336.5,198.8,335.3,197.7,333.9z"/>
	</g>
	<g>
		<path fill="#8DB936" d="M158,188.6c-2.6-1.5-6-1.4-10.1,0.4c-2,0.9-4.1,2.3-6.3,4.2c-2.1,1.9-4.4,4.2-6.4,6.9
			c-4.2,5.5-8,12.6-10.8,20.6c-2.9,7.9-5,16.6-6.4,25.1c-1.4,8.5-2.3,16.9-2.7,24.5c-0.2,3.8-0.4,7.5-0.3,11c0,3.6,0.2,7,0.5,10.3
			c1.3,13.1,5.4,23.6,14.7,27.5c1.7,0.7,3.5,1.2,5.6,1.4c1.2,0.1,2.4,0.2,3.7,0.2c5.8,0.7,10.2-7.3,13-20.2
			c0.7-3.2,1.3-6.8,1.8-10.6c0.2-1.9,0.4-3.8,0.6-5.8c0.1-2,0.3-4.1,0.4-6.2c0.5-8.4,0.2-17.2-0.2-25.6c-0.4-8.4-0.9-16.6-1.1-24
			c-0.2-7.5-0.1-14.2,0.4-20c0.1-1.4,0.3-2.8,0.4-4.1c0.1-1.3,0.3-2.5,0.5-3.7c0.2-1.1,0.3-2.3,0.5-3.3c0.2-1,0.4-1.9,0.6-2.8
			c0.1-0.4,0.2-0.8,0.3-1.2c0.1-0.4,0.2-0.7,0.3-1.1c0.2-0.7,0.3-1.3,0.5-1.8C157.8,189.4,157.9,188.8,158,188.6z"/>
		<path fill="#65901F" d="M130.2,319c-2.5,17.6-5.3,35.6-7.4,52.8c-2.2,17.3-3.5,33.8-3.7,48.2c-0.1,7.2,0,14-0.2,20.2
			c-0.2,6.2-0.7,11.7-1.5,16.5c-0.8,4.7-2,8.6-3,11.5c-0.3,0.7-0.5,1.4-0.7,1.9c-0.3,0.6-0.5,1.1-0.7,1.5c-0.4,0.9-0.7,1.5-0.8,1.8
			c-0.9,1.7-0.7,3.6,0.5,4.5c0.1,0,0.1,0.1,0.2,0.1c1.4,0.7,3.4-0.3,4.5-2.3c0-0.1,0.2-0.5,0.6-1.3c0.3-0.8,0.9-1.8,1.4-3.2
			c1.1-2.7,2.4-6.7,3.4-11.6c1-4.9,1.6-10.7,1.9-17c0.3-6.3,0.2-13.2,0.2-20.3c0.1-14.2,1.4-30.7,3.5-48.2c2.1-17.4,5-35.7,7.5-53.6
			C133.7,320.2,131.9,319.7,130.2,319z"/>
	</g>
	<g>
		<path fill="#BCCD30" d="M63.5,229.9c-1.4,2.6-1,6.2,0.2,10.2c1.2,4,2.8,8.8,4.4,13.8c1.6,5.1,3,10.6,4.4,16.3
			c1.3,5.8,2.6,11.8,4,17.9c0.6,3.1,1.3,6.2,2.1,9.2c0.4,1.5,0.8,3,1.1,4.5c0.4,1.5,0.8,3,1.2,4.4c0.2,0.7,0.5,1.4,0.7,2.1
			c0.2,0.7,0.4,1.4,0.6,2.1c0.4,1.4,0.9,2.8,1.4,4.1c0.5,1.3,1,2.6,1.6,3.9c0.5,1.3,1.1,2.6,1.6,3.8c1.2,2.4,2.5,4.6,4,6.7
			c1.4,2,3,3.8,4.7,5.4c3.6,3,7.7,5,12.6,5.3c1.8,0.1,3.7,0,5.7-0.3c1.1-0.2,2.3-0.5,3.5-0.8c2.8-0.5,4.8-2.6,6-6.1
			c0.5-1.7,0.9-3.8,1.1-6.1c0.2-2.3,0.2-5-0.1-7.8c-0.8-11.3-5.1-26.4-12-40.5c-3.3-7.1-7.6-14.2-12.3-20.4
			c-4.8-6.3-10-11.8-15.3-16c-5.2-4.2-10.4-7.2-14.2-9c-1-0.4-1.9-0.8-2.6-1.2c-0.8-0.3-1.5-0.6-2.1-0.8
			C64.5,230.2,63.8,229.9,63.5,229.9z"/>
		<path fill="#8B9F1C" d="M108.2,339.7c2.2,14.6,3.9,29.8,5.5,44.2c1.6,14.4,3.2,28.2,5,40.2c0.4,3,0.9,5.9,1.4,8.6
			c0.5,2.7,0.9,5.4,1.4,7.9c0.5,2.5,1,4.8,1.4,7c0.2,1.1,0.4,2.1,0.6,3.1c0.2,1,0.5,2,0.7,2.9c0.4,1.8,0.8,3.5,1.2,5
			c0.2,0.7,0.3,1.4,0.5,2.1c0.1,0.3,0.2,0.6,0.2,0.9c0.1,0.2,0.1,0.4,0.2,0.6c0.3,0.8,0.6,1.3,0.7,1.5c0.1,0.1,0.1,0.1,0.2,0.2l0,0
			l0,0c0,0,0,0,0,0l-0.1,0c-0.2,0.1-0.3,0.2-0.4,0.3c-0.2,0.2-0.5,0.5-0.6,0.6c-0.1,0.1-0.1,0.2-0.2,0.3c0,0.1-0.1,0.1-0.1,0.2
			c0,0.1-0.1,0.1-0.1,0.2c0,0,0,0.1,0,0.1c0,0,0,0.1,0,0.1c0,0,0,0,0,0c0,0,0,0,0,0c0-0.1,0-0.1,0-0.1c0-0.1,0-0.1,0-0.1l0,0
			c0,0,0,0.3,0,0.2c0-0.1,0.4-0.9,1.8-1.9c0.1-0.1,0.6-0.5,2-1.2c0.4-0.2,0.8-0.4,1.2-0.6c0.4-0.2,0.8-0.4,1.3-0.6
			c0,0-0.1-0.1-0.2-0.2c0-0.1-0.1-0.2-0.1-0.3c0-0.1,0-0.1-0.1-0.2c0-0.1,0-0.1-0.1-0.3c-0.1-0.6-0.3-1.2-0.5-1.9
			c-0.3-1.4-0.7-2.9-1.1-4.7c-1.7-6.9-3.6-16.9-5.4-28.7c-1.8-11.9-3.4-25.8-5-40.4c-1.6-14.7-3.3-30.2-5.6-45.2
			C111.8,339.7,110,339.8,108.2,339.7z"/>
	</g>
	<g>
		<path fill="#969F3C" d="M46.4,291.4c-2,2.1-2.9,5.1-3.2,8.8c-0.1,1.8,0,3.8,0.2,5.9c0.2,2.1,0.5,4.4,1,6.7
			c1.9,9.3,5.3,19.8,9.5,29.8c4.2,9.9,9.5,19.3,16,25.6c3.3,3.2,6.8,5.6,10.7,6.8c3.9,1.3,8.1,1.3,12.6-0.1c1.6-0.5,3.3-1.3,5-2.2
			c1-0.5,2-1.2,3-1.9c4.9-2.7,4.8-9.3,1.6-17.7c-3.2-8.4-9.7-18.6-17.6-28.1c-7.9-9.5-17.1-18.1-24.8-24
			C52.8,295.1,47,291.8,46.4,291.4z"/>
		<path fill="#6F7C23" d="M93.3,374.9c2.8,5.3,5.7,10.6,8.6,16c2.9,5.3,5.8,10.6,8.5,15.9c2.7,5.2,5.1,10.5,7.1,15.7
			c2,5.2,3.4,10.4,4.5,15.2c2.3,9.7,3.3,18.3,4.1,24.5c0.7,6.2,1.2,10.1,1.3,11c0.1,1.2,1.3,2,2.7,2l0.2,0c1.5-0.1,2.6-1.2,2.4-2.5
			c0-0.2-0.4-3.8-1.2-9.8c-0.8-6-1.8-14.6-4-24.8c-1.1-5.1-2.6-10.5-4.6-16.1c-2-5.6-4.5-11.2-7.3-16.6c-2.8-5.5-5.8-10.9-8.7-16.3
			c-2.9-5.4-5.9-10.9-8.8-16.3C96.6,373.6,95,374.3,93.3,374.9z"/>
	</g>
	<g>
		<path fill="#8DB936" d="M42.4,357.9c0.1,2,1.8,3.8,3.6,6c0.9,1.1,1.7,2.2,2.5,3.5c0.7,1.3,1.4,2.6,1.9,3.9c0.5,1.4,1,2.8,1.3,4.3
			c0.2,0.7,0.3,1.5,0.5,2.2c0.1,0.7,0.2,1.5,0.4,2.3c0.6,3.2,1.2,6.9,3,11.3c0.9,2.2,2.1,4.6,3.7,6.9c1.6,2.3,3.3,4.2,5,5.8
			c3.4,3.2,6.4,5.2,9,6.4c1.3,0.6,2.6,1.1,4,1.5c1.3,0.4,2.7,0.6,4.1,0.7c2.7,0.2,5.7-0.4,8.6-2c1-0.6,2.1-1.3,3.1-2.2
			c0.6-0.5,1.2-1.1,1.8-1.7c1.5-1.3,1.9-3.1,1.5-5.3c-0.1-0.6-0.3-1.2-0.5-1.8c-0.2-0.6-0.5-1.2-0.9-1.9c-0.3-0.6-0.7-1.3-1.2-2
			c-0.5-0.7-1-1.4-1.5-2.1c-1.1-1.4-2.4-2.9-3.8-4.2c-1.4-1.3-2.8-2.5-4.1-3.6c-1.3-1.1-2.5-2.2-3.6-3.1c-0.5-0.5-1-0.9-1.5-1.4
			c-0.5-0.4-0.9-0.9-1.4-1.5c-2-2.2-4.3-5.6-7.2-9.2c-0.7-0.9-1.5-1.8-2.3-2.7l-0.6-0.7l-0.7-0.7c-0.4-0.5-0.9-0.9-1.4-1.3
			c-1.9-1.7-3.8-3.1-5.8-4.3c-2-1.2-4.1-2.1-6.1-2.7c-2-0.6-3.9-0.9-5.5-1C44.8,357.2,42.8,357.9,42.4,357.9z"/>
		<path fill="#65901F" d="M89.8,410.5c10.9,13.2,19,29.5,25.5,41.9c6.4,12.5,11.3,21.3,11.9,22.3c0.4,0.7,1.4,1,2.3,0.6l0.1-0.1
			c0.9-0.5,1.3-1.5,0.9-2.3c-0.1-0.1-1.3-2.4-3.3-6.1c-2-3.7-4.8-9-8-15.3c-3.2-6.3-6.9-13.6-11.3-21.1c-4.3-7.5-9.3-15.3-15-22.2
			C91.9,409.2,90.8,409.9,89.8,410.5z"/>
	</g>
	<g>
		<path fill="#8DB936" d="M801.2,298c-3.7,3.1-3.3,10.5-1.5,19.6c1.9,9.1,5.2,19.9,9.3,30.4c1,2.6,2.1,5.2,3.2,7.7
			c1.1,2.5,2.3,5,3.5,7.3c2.3,4.8,5.1,9,7.8,12.7c2.9,3.6,5.9,6.5,9.3,8.4c3.4,1.8,7,2.7,10.9,2c1.4-0.2,2.9-0.7,4.4-1.3
			c0.9-0.4,1.7-0.8,2.6-1.3c2.1-0.9,3.3-3,3.4-6c0.2-3-0.5-6.9-1.9-11.3c-2.8-8.9-8.7-19.9-15.8-30.2c-7-10.3-15.3-19.9-22.3-26.7
			C807.3,302.6,801.8,298.5,801.2,298z"/>
		<path fill="#65901F" d="M843.8,386.2c4.7,11.5,9,23.4,12.6,35c3.6,11.6,6.4,22.9,8.6,32.8c4.3,20,5.7,34.6,6,36.4
			c0.2,1.2,1.2,2.1,2.3,2.1l0.2,0c1.2-0.1,2.1-1.3,1.9-2.6c0-0.1-0.1-1.1-0.3-2.8c-0.1-0.9-0.2-1.9-0.4-3.2c-0.1-0.6-0.2-1.3-0.2-2
			c-0.1-0.7-0.2-1.4-0.3-2.2c-0.2-1.6-0.5-3.3-0.8-5.1c-0.1-0.9-0.3-1.9-0.4-2.9c-0.2-1-0.4-2-0.5-3.1c-0.4-2.1-0.8-4.3-1.2-6.7
			c-0.4-2.3-1-4.8-1.5-7.3c-2.1-10.1-5-21.7-8.6-33.7c-3.7-11.9-8.1-24.3-12.9-36C846.7,385.6,845.2,386,843.8,386.2z"/>
	</g>
	<g>
		<path fill="#969F3C" d="M787.6,371.2c-0.6,1.5-0.3,3.5,0.6,5.6c0.9,2.1,2.3,4.6,3.8,7.2c1.7,2.8,3.3,5.6,4.9,8.3
			c1.7,2.9,3.4,6,5.1,9c3.4,6,6.8,11.9,10.6,16.4c3.9,4.4,8.5,7.3,14,6.3c1-0.2,2-0.5,3.1-1c0.6-0.3,1.2-0.6,1.8-0.9
			c3-1.3,3.1-5.8,1-11.9c-1.1-3-2.7-6.5-4.9-10c-2.2-3.5-4.9-7-7.9-10.3c-3.1-3.3-6.5-6.3-10-8.8c-3.5-2.5-7.1-4.6-10.3-6
			c-1.6-0.8-3.1-1.3-4.5-1.8c-1.4-0.5-2.6-0.8-3.7-1.2C789.2,371.6,787.8,371.3,787.6,371.2z"/>
		<path fill="#6F7C23" d="M826.6,424c3.2,7.6,6.1,15.6,9.1,23.1c2.9,7.6,5.9,14.7,8.9,20.7c5.8,12.2,11,20.3,11.5,21.3
			c0.4,0.7,1.3,0.9,2,0.5l0.1-0.1c0.7-0.5,1-1.4,0.6-2.1c-0.1-0.1-1.3-2.2-3.3-5.6c-2-3.5-4.7-8.5-7.6-14.5c-2.9-6-6-13.1-8.9-20.7
			c-3-7.6-6-15.8-9.3-23.6C828.6,423.5,827.6,423.8,826.6,424z"/>
	</g>
	<g>
		<path fill="#BCCD30" d="M745.7,275.5c-1.3,2-1,5,0,8.4c0.3,0.9,0.6,1.8,0.9,2.7c0.3,1,0.7,1.9,1.1,2.9c0.8,2.1,1.6,4.2,2.4,6.5
			c1.7,4.5,3.3,9.6,5.1,15c1.7,5.4,3.6,11.2,5.7,17.1c2.2,5.9,4.7,12,7.8,17.7c3.1,5.7,7,11.2,10.9,15.1c8,8,16.2,11.3,23.6,8.3
			c1.3-0.6,2.7-1.3,3.9-2.3c0.7-0.6,1.5-1.2,2.2-1.9c3.7-2.8,1.7-9.6-2.8-17.9c-1.1-2.1-2.4-4.2-3.7-6.5c-1.3-2.2-2.7-4.6-4.1-7
			c-2.9-4.9-6.1-10.4-9.7-16c-3.6-5.7-7.5-11.5-11.8-16.9c-4.3-5.4-8.9-10.3-13.4-14.1c-1.2-0.9-2.3-1.8-3.3-2.7
			c-1.1-0.8-2.2-1.6-3.2-2.3c-0.5-0.3-1-0.7-1.5-1c-0.5-0.3-1-0.6-1.5-0.9c-1-0.5-1.8-1-2.6-1.5c-0.8-0.5-1.6-0.8-2.3-1.1
			c-0.7-0.3-1.3-0.6-1.8-0.8C746.5,275.9,745.9,275.6,745.7,275.5z"/>
		<path fill="#8B9F1C" d="M803.2,369.3c4.1,5.5,8.3,11.1,12.3,16.7c4,5.6,7.7,11.4,11,17.3c6.6,11.8,11.7,23.7,15.7,34.3
			c4,10.6,7.1,19.8,9.3,26.6c2.2,6.7,3.6,11,3.9,12c0.4,1.3,1.6,2,2.8,1.7l0.2-0.1c1.2-0.4,1.8-1.8,1.3-3.2
			c-0.1-0.2-1.3-4.1-3.5-10.6c-2.2-6.5-5.1-15.7-9.2-26.5c-4-10.8-9.2-23.1-16-35.4c-1.7-3.1-3.5-6.1-5.4-9.2c-1.9-3-3.9-6-6-8.9
			c-4.1-5.9-8.4-11.5-12.6-17.1C805.9,368,804.6,368.8,803.2,369.3z"/>
	</g>
	<g>
		<path fill="#969F3C" d="M855,238.7c-2.3,1-3.8,3.7-4.9,7.4c-0.6,1.8-1.1,3.9-1.5,6.2c-0.6,2.3-0.9,4.7-1.5,7.3
			c-1,5.4-2.1,11.1-3.2,17c-1.2,6.1-2.4,12.6-3.3,19.4c-0.9,6.8-1.5,13.9-1.4,20.9c0,3.5,0.4,7,0.8,10.3c0.5,3.3,1.1,6.4,1.9,9.2
			c3.2,11.5,9.1,19.2,17.5,20.1c1.5,0.2,3.1,0.1,4.8-0.2c1-0.2,1.9-0.4,3-0.7c4.8-0.8,6.4-8,6.5-18.2c0-2.5-0.1-5.3-0.1-8.2
			c-0.1-2.9-0.3-5.9-0.4-9c-0.4-6.2-0.7-13-1.2-20.1c-0.5-7.1-1.3-14.5-2.5-21.7c-1.2-7.1-2.8-14-4.8-19.8c-2-5.9-4.2-10.7-6.1-14.2
			c-0.2-0.4-0.4-0.8-0.6-1.2c-0.2-0.4-0.4-0.7-0.7-1.1c-0.4-0.7-0.8-1.3-1.1-1.7C855.5,239.5,855.1,238.9,855,238.7z"/>
		<path fill="#6F7C23" d="M859.3,356.5c2.1,14.7,5,29.6,7.6,43.8c2.6,14.3,4.8,27.9,6.1,40.1c0.7,6.1,1.1,11.7,1.8,16.6
			c0.7,4.9,1.5,9.2,2.6,12.7c2.1,7,4.7,10.4,5.1,11.2c0.8,1,2.1,1.3,3.1,0.6l0.2-0.1c1-0.8,1.3-2.2,0.6-3.1c0-0.2-2.2-2.7-4.1-8.7
			c-1-3-1.9-6.9-2.6-11.6c-0.7-4.7-1.2-10.2-1.8-16.3c-1.3-12.3-3.5-26.4-6.1-40.9c-2.6-14.5-5.6-29.6-7.7-44.4
			C862.4,356.6,860.8,356.7,859.3,356.5z"/>
	</g>
	<g>
		<path fill="#8DB936" d="M924.3,300c-1-2.3-2.9-4.2-6.1-5.2c-3.2-1.1-7.5-1-12.4,0.5c-4.9,1.5-10.1,4.4-15,8.5
			c-4.8,4.1-9.3,9.2-12.9,14.7c-1.8,2.8-3.3,5.6-4.8,8.5c-0.8,1.4-1.4,2.9-1.9,4.4c-0.6,1.5-1.1,2.9-1.6,4.4
			c-1.1,2.9-1.7,5.8-2.2,8.6c-0.3,1.4-0.5,2.8-0.7,4.1c-0.1,1.4-0.2,2.7-0.2,4c0,2.6,0.1,5,0.6,7.2c0.5,2.2,1.2,4.3,2.1,6.1
			c1.8,3.6,4.7,6.3,8.6,7.8c1.4,0.5,2.9,0.9,4.6,1.1c1,0.1,2,0.2,3,0.2c2.4,0.3,4.4-0.9,6.2-3c0.9-1.1,1.8-2.4,2.5-4
			c0.8-1.6,1.5-3.4,2.2-5.3c2.7-7.8,5.3-18,8.5-28.1c3-10.1,7.1-19.2,11.1-25.2c2-3,4-5.2,5.5-6.7c0.4-0.4,0.7-0.7,1.1-1
			c0.3-0.3,0.6-0.5,0.9-0.7C923.8,300.3,924.2,300.1,924.3,300z"/>
		<path fill="#65901F" d="M877.7,373.4c-1.8,12.3-2.7,24.9-3.2,37c-0.5,12.1-0.7,23.6-1.1,33.8c-0.1,2.5-0.2,5-0.3,7.3
			c-0.1,2.3-0.2,4.6-0.3,6.7c-0.3,4.2-0.5,8-0.8,11.2c-0.1,1.6-0.3,3.1-0.4,4.4c-0.1,0.7-0.1,1.3-0.2,1.8c0,0.3-0.1,0.6-0.1,0.8
			c0,0.3-0.1,0.6-0.1,0.9c-0.2,1.2-0.5,2.3-0.9,3.2c-0.4,0.9-0.9,1.6-1.2,1.9c-0.8,1-1.9,2.1-3,2.8c-1.1,0.7-1.9,1.2-1.9,1.8
			c0,0.1,0,0.1,0,0.2c0.2,0.6,1.5,1.3,3.7,0.9c1.1-0.2,2.2-0.7,3.2-1.3c0.5-0.3,0.9-0.7,1.3-1.1c0.2-0.2,0.4-0.4,0.5-0.6
			c0.2-0.2,0.3-0.4,0.4-0.6c0.1-0.1,0.6-0.8,1.1-1.8c0.5-1,1-2.3,1.3-3.7c0.1-0.3,0.2-0.7,0.2-1.1c0-0.2,0.1-0.4,0.1-0.6
			c0-0.2,0.1-0.4,0.1-0.5c0-0.5,0.1-1.1,0.2-1.7c0.1-1.2,0.2-2.6,0.4-4.2c0.6-6.3,1.1-15,1.6-25.3c0.4-10.2,0.6-22,1.1-34.2
			c0.5-12.2,1.3-25,3.1-37.2C880.6,374.3,879.1,373.9,877.7,373.4z"/>
	</g>
	<g>
		<path fill="#969F3C" d="M942.8,347.5c-1.5-1.9-3.8-3-6.8-3.5c-1.5-0.2-3.2-0.3-5-0.2c-1.8,0.2-3.7,0.5-5.7,1
			c-7.9,2-17.2,7.2-24.7,14.2c-7.5,6.9-13.4,15.5-15.6,23.3c-2.3,7.9-1,15.1,5.2,20c1.1,0.9,2.4,1.7,3.8,2.5
			c0.8,0.4,1.7,0.8,2.6,1.2c4.1,2.1,8.5-0.8,12.9-6.2c4.4-5.4,8.9-13.1,13.4-20.9c4.5-7.8,9-15.5,12.8-21.3
			C939.6,351.9,942.5,348,942.8,347.5z"/>
		<path fill="#6F7C23" d="M890.2,402.4c-2.4,4.4-4.7,9-6.8,13.5c-2.2,4.6-4.3,9.1-6.2,13.6c-1.9,4.5-3.5,9.1-4.6,13.5
			c-1.1,4.4-1.8,8.7-2.2,12.7c-0.8,8.1-0.6,15-0.4,20.1c0.2,5.1,0.5,8.4,0.5,9.1c0.1,1,1,1.7,2.2,1.8l0.2,0c1.2,0,2.2-0.9,2.1-1.9
			c0-0.2-0.2-3.1-0.5-8c-0.2-4.9-0.4-11.6,0.2-19.4c0.3-3.9,0.9-8,1.9-12.2c1-4.2,2.5-8.6,4.3-13.1c1.8-4.5,4-9.1,6.2-13.7
			c2.2-4.6,4.5-9.2,6.9-13.6C892.6,404.1,891.3,403.3,890.2,402.4z"/>
	</g>
	<g>
		<path fill="#BCCD30" d="M931.9,402c0.1-0.8,0.2-1.7,0-2.5c-0.1-0.9-0.5-1.7-1.1-2.5c-0.6-0.8-1.6-1.5-2.8-1.9
			c-1.2-0.4-2.7-0.6-4.4-0.5c-1.6,0.1-3.4,0.5-5.1,1.3c-0.9,0.4-1.7,0.8-2.6,1.3c-0.9,0.5-1.7,1.1-2.5,1.7c-3.1,2.3-5.7,5.1-7.8,7.1
			c-1.1,1-2,1.8-2.8,2.4c-0.8,0.7-1.7,1.4-2.7,2.3c-2,1.7-4.2,3.9-6.1,6.5c-0.9,1.3-1.6,2.7-2.2,4c-0.5,1.3-0.8,2.7-0.9,3.9
			c-0.1,2.6,0.7,5,2.5,7.1c0.6,0.8,1.4,1.5,2.3,2.2c0.5,0.4,1.1,0.8,1.7,1.2c2.6,2,5.8,0.7,9.4-1.6c1.7-1.2,3.8-2.6,6.5-5
			c1.3-1.1,2.8-2.5,4.2-4.1c1.4-1.6,3-3.6,4.1-5.5c2.3-3.8,3.5-7,4.6-9.5c0.5-1.2,1-2.2,1.4-3c0.4-0.8,0.9-1.5,1.3-2.1
			c0.9-1.2,1.6-1.8,2.1-2.2C931.5,402.2,931.8,402,931.9,402z"/>
		<path fill="#8B9F1C" d="M893.5,432.1c-4.5,5.6-8.3,11.9-11.2,18.3c-3,6.3-5.3,12.6-7.3,18c-4,11-6.6,19-6.9,19.9
			c-0.2,0.7,0.2,1.4,1,1.7l0.1,0c0.8,0.3,1.7,0,1.9-0.7c0-0.1,0.7-2.1,1.8-5.5c1.1-3.3,2.8-8,4.8-13.5c2-5.5,4.3-11.7,7.3-18
			c2.9-6.3,6.5-12.6,10.9-18C894.9,433.6,894.1,432.9,893.5,432.1z"/>
	</g>
</g>
</svg>
