<?xml version="1.0" encoding="utf-8"?>
<!-- Generator: Adobe Illustrator 21.0.0, SVG Export Plug-In . SVG Version: 6.00 Build 0)  -->
<svg version="1.2" baseProfile="tiny" id="plant_back"
	 xmlns="http://www.w3.org/2000/svg" xmlns:xlink="http://www.w3.org/1999/xlink" x="0px" y="0px" viewBox="0 0 982 550"
	 xml:space="preserve">
<g>
	<path fill="#5E7B38" d="M37.6,184.7c-2.3-0.5-6,1.8-8.9,9.1c-1.5,3.8-0.7,9.2-2,14.5c-1.1,4.3-4.4,8.5-5.3,13.6
		c-0.4,2.3-0.2,4.7,0.1,7.2c0.3,2.5,0.5,5,0.2,7.5c-0.6,4.6-3.4,9.1-3.9,14.1c-0.4,4.7,1.6,9.6,1.3,14.4c-0.3,4.7-2.9,9.2-3.2,14
		c-0.2,4.6,2,9.4,1.8,14c-0.2,4.6-2.7,9.1-2.9,13.7c-0.1,2.3,0.4,4.6,0.9,6.8c0.5,2.3,1,4.6,0.9,6.8c-0.1,2.3-0.8,4.5-1.5,6.7
		c-0.7,2.2-1.4,4.4-1.5,6.5c-0.1,2.2,0.4,4.5,0.8,6.7c0.5,2.2,1,4.4,0.8,6.6c-0.3,4.5-2.9,8.7-3.2,12.7c-0.3,4.4,1.8,8.8,1.6,12.9
		c-0.2,2.2-0.8,4.4-1.5,6.5c-0.7,2.1-1.3,4.1-1.4,6c-0.1,2.3,0.5,4.5,1.2,6.7c0.6,2.1,1.3,4.2,1.5,6.1c0.2,2.6,0,5,0,7.3
		c-0.1,2.3,0.1,4.3,1,6c2.2,4.1,7.1,5.3,12.5,5.8c4.3,1.7,8.9,3.2,13.5,0.2c1.8-1.1,3-3.1,4.3-5.4c1.3-2.3,2.5-4.8,4.1-7.3
		c1.3-1.9,2.9-3.7,4.6-5.6c0.8-1,1.7-2,2.4-3.1c0.8-1.1,1.4-2.3,1.9-3.6c0.9-2.2,1.2-4.8,1.4-7.4c0.2-2.6,0.4-5.3,1-7.9
		c1.2-4.7,4.5-9.1,5.3-14.4c0.3-2.4,0.1-5-0.3-7.5c-0.4-2.5-0.7-5.1-0.6-7.7c0.1-2.4,0.8-4.8,1.5-7.3c0.7-2.4,1.3-4.9,1.3-7.4
		c0-4.9-2.6-9.7-2.9-14.5c-0.3-4.8,1.7-9.8,1.2-14.6c-0.2-2.4-1.1-4.7-2-6.9c-0.9-2.3-1.8-4.5-2.1-6.8c-0.7-4.7,0.9-9.7,0.2-14.2
		c-0.8-4.6-4-8.7-4.9-13.2c-0.9-4.6,0.5-9.6-0.4-13.9c-1-4.6-4.3-8.5-5.2-12.8c-1-4.6,0.3-9.5-0.6-13.7c-1.1-4.7-4.4-8.5-5.4-12.6
		c-0.6-2.5-0.6-5-0.5-7.3c0-2.3,0.1-4.5-0.4-6.3c-1-3.5-2.2-6-3.4-7.7C39.5,186.2,38.3,185.2,37.6,184.7z"/>
	<path fill="none" stroke="#405230" stroke-width="3" stroke-linecap="round" stroke-miterlimit="10" d="M36.7,204.6
		c-0.9,18.7-0.4,36.1,0.2,52.2c0.6,16.1,1.4,30.8,1.9,44.2c0.9,26.9,0.3,48.6-1.6,65.6c-1.8,17-4.4,29.2-6.4,37.2
		c-0.5,2-1,3.7-1.4,5.2c-0.4,1.5-0.7,2.7-1,3.7c-0.5,1.9-0.8,2.9-0.8,2.9"/>
</g>
<g>
	<path fill="#5E7B38" d="M131.7,214.1c-2.2-1-6.1,0.1-10.6,5.7c-2.3,2.9-2.7,7.9-5,12.7c-0.9,1.9-2.3,3.8-3.7,5.8
		c-1.4,2.1-2.7,4.4-3.3,7.2c-0.5,2.4-0.3,5.1,0.1,7.7c0.4,2.6,0.8,5.2,0.8,7.6c-0.1,4.6-2.3,9.3-2.1,13.6c0.1,4.1,2.6,7.8,2.5,11.3
		c-0.2,3.4-2.9,6.6-3.4,10c-0.5,3.4,1.3,7.3,0.6,11.2c-0.7,3.8-3.8,7.5-4.5,11.6c-0.7,4.2,1,8.7,0.4,12.7c-0.3,2.1-1.2,4-2.1,6
		c-0.9,1.9-1.8,3.8-2.1,5.8c-0.3,2,0,4.1,0.3,6.1c0.3,2,0.6,4.1,0.4,6c-0.3,2-1.2,3.9-2,5.7c-0.9,1.8-1.7,3.6-1.9,5.4
		c-0.3,1.9,0.1,3.9,0.4,5.9c0.3,1.9,0.7,3.9,0.5,5.7c-0.3,2-1.1,3.8-1.8,5.6c-0.8,1.7-1.5,3.4-1.6,5.1c-0.2,2,0.3,4,0.9,6
		c0.5,1.9,1.1,3.8,1.2,5.6c0.1,2.3-0.2,4.4-0.3,6.4c-0.1,2-0.1,3.8,0.7,5.4c2,4,6.6,5.8,11.9,7c4.1,2.1,8.5,4.2,13.2,1.9
		c3.5-1.8,5.7-6.6,9-10.7c1.4-1.6,3.1-3.1,4.9-4.7c0.9-0.8,1.8-1.7,2.6-2.6c0.8-0.9,1.5-2,2.1-3.1c0.5-1,0.9-2.1,1.2-3.2
		c0.3-1.1,0.4-2.3,0.6-3.5c0.2-1.2,0.3-2.4,0.6-3.6c0.2-1.2,0.5-2.4,0.8-3.5c0.4-1,0.8-2,1.4-3.1c0.5-1,1.1-2,1.7-3
		c1.2-2,2.4-4.1,2.9-6.4c1-4.3-0.5-9.1,0.1-13.6c0.6-4.3,3.5-8.3,3.9-12.7c0.4-4.3-1.8-8.7-1.6-12.9c0.2-4.2,2.7-8.3,2.7-12.4
		c0-4.1-2.3-8.5-2.5-13c-0.1-4.5,2-9.4,1.4-14.2c-0.6-5-3.8-9.5-5.1-14.2c-1.3-4.9-0.5-9.9-2-13.8c-1.5-4-5.3-6.7-6.6-10
		c-0.7-1.7-0.7-3.6-0.7-5.3c0-0.9,0.1-1.6,0-2.4c0-0.8-0.1-1.5-0.3-2.2c-0.5-1.6-1.4-3.2-2.3-4.8c-0.9-1.6-1.7-3.4-1.9-5
		c-0.4-4.2,1.8-8.1,1.6-11.4C135.5,218.9,133,215.3,131.7,214.1z"/>
	<path fill="none" stroke="#405230" stroke-width="3" stroke-linecap="round" stroke-miterlimit="10" d="M126.7,231.1
		c-1.1,4-1.9,7.9-2.4,11.9c-0.4,3.9-0.5,7.9-0.1,11.7c0.6,7.7,2.2,15.1,3.3,22.2c2.5,14.2,1.2,27.4,0,39.3
		c-1.2,12-2.2,22.8-3.3,32.6c-1.1,9.7-2.3,18.3-3.7,25.9c-2.7,15.1-5.8,25.8-8.1,32.8c-0.6,1.8-1.2,3.3-1.6,4.6
		c-0.5,1.3-0.8,2.4-1.2,3.2c-0.6,1.7-1,2.5-1,2.5"/>
</g>
<g>
	<path fill="#5E7B38" d="M81.9,187.6c-1.1-0.5-2.6-0.6-4.5,0.6c-1.8,1.1-3.9,3.7-5.2,8c-0.6,2.2-0.5,4.9-0.2,7.6
		c0.4,2.7,0.9,5.5,1,8.3c0.1,4.5-1.8,9.4-1.8,14c0.1,2.1,0.7,4.1,1.5,6.3c0.4,1.1,0.7,2.2,0.9,3.3c0.2,1.1,0.4,2.3,0.4,3.4
		c0,2.1-0.6,4.3-1.1,6.4c-0.7,2.2-1.4,4.4-1.4,6.6c0,1,0.1,2.1,0.3,3.1c0.1,0.5,0.2,1.1,0.4,1.6c0.1,0.5,0.2,1.1,0.3,1.6
		c0.4,2.2,0.9,4.4,0.8,6.6c-0.1,1.1-0.3,2.1-0.5,3.2c-0.3,1.1-0.7,2.1-1.1,3.2c-0.8,2.1-1.6,4.2-1.8,6.4c-0.1,2.1,0.1,4.3,0.5,6.5
		c0.3,2.2,0.7,4.4,0.5,6.6c-0.6,4.3-3.6,8.3-4.1,12.6c-0.3,2.2-0.1,4.4,0.2,6.6c0.3,2.2,0.6,4.5,0.2,6.6c-0.8,4.4-3.7,8.4-4.5,12.7
		c-0.4,2.2-0.1,4.5,0.1,6.8c0.3,2.3,0.5,4.6,0.1,6.7c-0.4,2.3-1.3,4.4-2.2,6.6c-0.9,2.1-1.8,4.2-2.1,6.4c-0.6,4.6,1.2,9.4,0.8,13.8
		c-0.4,4.8-3.1,9.3-3.2,13.5c0,5.1,2.5,9.6,3.2,13.7c0.8,5.4,0.1,10.7,2.5,13.9c2.8,3.9,7.8,4,13.2,3.7c4.5,0.9,9.4,1.7,13.3-1.6
		c3-2.5,4.1-7.6,6.7-12.2c1.1-1.8,2.6-3.4,4.2-5.2c1.5-1.8,3-3.8,4-6.1c0.8-2,1.1-4.3,1.2-6.7c0.2-2.4,0.3-4.9,1.1-7.2
		c1.3-4.2,4.8-8.2,5.9-13c1.1-4.4-0.5-9.6,0.4-14.4c0.4-2.3,1.3-4.5,2.2-6.8c0.9-2.3,1.8-4.6,2.1-7c0.3-2.3-0.1-4.8-0.5-7.2
		c-0.4-2.4-0.8-4.9-0.7-7.3c0.2-4.8,2.7-9.6,2.8-14.5c-0.1-4.9-2.6-9.7-2.9-14.5c-0.2-2.4,0.2-4.9,0.6-7.4c0.4-2.5,0.8-5,0.4-7.4
		c-0.3-2.5-1.3-4.8-2.3-7.1c-0.5-1.2-0.9-2.3-1.4-3.5c-0.5-1.2-0.9-2.3-1.1-3.5c-0.5-2.4-0.4-5-0.4-7.5c0-0.6,0-1.3,0-1.9
		c0-0.6-0.1-1.3-0.1-1.9c-0.1-1.2-0.3-2.4-0.6-3.6c-0.7-2.4-2-4.7-3.2-6.8c-1.3-2.1-2.7-4.2-3.5-6.4c-0.9-2.4-1.2-4.9-1.5-7.4
		c-0.5-2.5-0.9-4.9-1.9-7c-0.6-1.2-1.2-2.3-2-3.3c-0.4-0.5-0.8-1-1.1-1.5c-0.4-0.5-0.8-0.9-1.2-1.4c-1.6-1.7-3.2-3.3-4.2-5
		c-1.2-2.1-1.8-4.3-2.1-6.2c-0.4-2-0.6-3.6-1.2-5c-1.2-2.5-2.3-4.4-3.4-5.9c-0.3-0.4-0.5-0.8-0.8-1.1c-0.2-0.3-0.5-0.6-0.7-0.9
		C82.6,188.4,82.2,188,81.9,187.6z"/>
	<path fill="none" stroke="#405230" stroke-width="3" stroke-linecap="round" stroke-miterlimit="10" d="M81.8,205.9
		c0.8,4.4,2.1,8.8,3.1,13.2c0.5,2.2,1,4.4,1.4,6.5c0.2,1.1,0.5,2.1,0.7,3.2c0.1,0.5,0.2,1.1,0.3,1.6l0.3,1.6c0.3,2.1,0.7,4.2,1,6.3
		c0.3,2.1,0.7,4.1,0.9,6.2c0.2,2.1,0.4,4.1,0.7,6.1c0.2,2,0.5,4,0.6,6c0.2,4,0.5,7.8,0.7,11.6c0.1,3.8,0.1,7.5,0.2,11.1
		c-0.1,3.6-0.2,7.2-0.2,10.6c0,1.7-0.1,3.4-0.2,5.1c-0.1,1.7-0.2,3.4-0.3,5c-0.9,13.2-2.1,25.1-3.6,35.8
		c-1.4,10.7-2.9,20.2-4.3,28.5c-2.7,16.7-4.8,28.8-5.9,36.8c-1.2,8-1.6,11.8-1.6,11.8"/>
</g>
<g>
	<path fill="#5E7B38" d="M150.9,171.1c-2.4-0.2-5.6,2.7-7.6,10.8c-0.5,2.1-0.4,4.5-0.2,7.2c0.2,2.6,0.4,5.5,0,8.4
		c-0.3,2.3-1.1,4.7-1.9,7.1c-0.8,2.5-1.6,5.1-1.7,7.8c-0.2,4.9,2.1,10.1,2.1,15.5c0,4.9-2.3,10.1-2.1,15.3c0.2,5,2.9,10.1,3.3,15.3
		c0.4,5-1.6,10.3-1.1,15.4c0.5,5,3.5,9.9,4.1,14.9c0.6,5-1.1,10.3-0.3,15.3c0.7,5,3.9,9.6,4.7,14.6c0.8,5-0.7,10.2,0.1,14.8
		c0.8,4.7,3.9,8.8,4.5,13.1c0.6,4.5-1.2,9-0.9,12.8c0.2,2.1,0.9,4,1.7,6c0.7,1.9,1.4,3.8,1.5,5.6c0,1-0.1,2.1-0.3,3
		c-0.1,0.5-0.2,1-0.4,1.5c-0.1,0.5-0.3,0.9-0.4,1.4c-0.6,1.9-1.2,3.6-1.2,5.3c0,1,0.1,2,0.3,3c0.2,1,0.5,2,0.7,2.9
		c0.3,1,0.5,1.9,0.8,2.9c0.2,0.9,0.3,1.8,0.3,2.7c0,2.3-0.5,4.5-0.9,6.4c-0.1,0.5-0.2,1-0.3,1.5c-0.1,0.5-0.1,0.9-0.2,1.4
		c-0.1,0.9,0,1.8,0.2,2.7c1.1,4.4,5.1,7.2,10.3,9.2c1.8,1.4,3.7,2.8,5.9,3.6c2.2,0.8,4.6,0.9,7.5-0.4c1.1-0.5,2.1-1.3,3.1-2.3
		c1-1,2-2.1,3-3.4c1-1.3,1.9-2.6,2.9-4c0.9-1.4,1.9-2.8,2.9-4.2c1.6-2.2,3.6-4.3,5.5-6.6c1.9-2.4,3.7-5,4.9-8.2
		c0.5-1.4,0.8-2.8,1-4.3c0.2-1.5,0.3-3.1,0.4-4.6c0.2-3.2,0.1-6.4,0.6-9.5c0.2-1.4,0.5-2.8,0.9-4.3c0.3-1.4,0.7-2.8,1.1-4.3
		c0.7-2.9,1.4-5.9,1.3-8.9c-0.2-5.7-3.1-11.1-3.9-16.6c-0.8-5.3,0.6-11-0.5-16.1c-1.1-5-4.7-9.3-5.9-14.1
		c-1.3-4.7-0.3-10.1-1.6-14.8c-1.3-4.7-5-8.7-6.4-13.3c-1.4-4.7-0.6-10.1-2-14.6c-1.5-4.7-5.2-8.5-6.7-13c-1.5-4.7-0.8-10-2.2-14.5
		c-1.6-4.7-5.3-8.5-6.8-12.9c-1.6-4.8-0.9-10.1-2.3-14.4c-1.7-4.9-5.4-8.6-6.9-12.8c-0.9-2.6-1.2-5.2-1.4-7.7
		c-0.2-2.5-0.4-4.8-1.2-6.7C156.2,174.7,152.6,171.9,150.9,171.1z"/>
	<path fill="none" stroke="#405230" stroke-width="3" stroke-linecap="round" stroke-miterlimit="10" d="M152.6,192.2
		c0.7,9.9,1.7,19.5,2.8,28.7c1.1,9.2,2.4,18,3.8,26.4c2.8,16.9,5.8,32.3,8.7,46.3c1.5,7,2.9,13.7,4.2,20.1
		c1.4,6.3,2.7,12.4,3.8,18.1c2.2,11.4,3.5,21.7,3.8,30.7c0.3,9.1-0.5,16.9-1.8,23.5c-1.3,6.6-3,11.9-4.7,15.9
		c-1.7,4.1-3.3,7-4.3,8.9c-1.1,1.9-1.7,2.8-1.7,2.8"/>
</g>
<g>
	<path fill="#8DB936" d="M272.6,141.1c-1.9-1.5-6.3-0.3-12.7,6.7c-1.6,1.8-3,4.2-4.3,7c-1.3,2.7-2.8,5.7-4.7,8.4
		c-1.5,2.2-3.7,4-5.7,6.1c-2,2.1-4.1,4.3-5.8,7c-1.5,2.4-2.5,5.2-3.5,8.1c-0.9,2.9-1.9,5.9-3.4,8.6c-1.4,2.5-3.2,4.8-5.1,7.1
		c-1.9,2.3-3.7,4.8-5,7.5c-1.2,2.6-2,5.6-2.7,8.6c-0.7,3-1.3,6.1-2.5,8.9c-2.2,5.4-6.7,10-8.7,15.7c-2,5.6-1.9,12.2-3.5,18
		c-0.9,2.9-2.3,5.5-3.7,8.3c-0.7,1.4-1.4,2.7-2,4.1c-0.6,1.4-1.1,2.8-1.5,4.3c-0.7,2.9-0.9,6.1-1,9.1c-0.1,1.5-0.1,3.1-0.3,4.6
		c-0.1,1.5-0.2,3-0.5,4.5c-0.6,3-1.8,5.8-2.9,8.7c-0.6,1.4-1.1,2.9-1.6,4.3c-0.5,1.4-0.8,2.9-1.1,4.4c-0.5,3.1-0.3,6.2-0.1,9.3
		c0.2,3.1,0.4,6.1,0.1,9.1c-0.3,3.1-1.1,6.1-1.9,9.1c-0.8,3-1.7,5.9-1.7,8.9c-0.1,6.3,2.2,12.3,2.4,18c0.3,6.4-1.6,12.8-0.8,18.4
		c1,6.6,4.6,11.5,6.1,16.5c2.2,6.5,3,13.3,6,16.5c3.7,3.8,8.6,2.3,13.7,0.2c4.6-0.3,9.5-1,12.4-6c2.3-3.8,1.8-10.1,3.5-16
		c0.6-2.3,1.8-4.7,2.9-7.1c1.1-2.4,2.1-5,2.7-7.9c0.5-2.5,0.3-5.2,0.1-7.9c-0.2-2.8-0.5-5.6,0-8.5c0.8-5.1,3.7-10.1,4.4-15.6
		c0.7-5.1-1.1-10.8-0.5-16.3c0.7-5.2,3.7-10.3,4.3-15.7c0.7-5.2-1-10.8-0.3-16.2c0.1-0.7,0.2-1.3,0.3-2c0.2-0.7,0.4-1.3,0.6-2
		c0.4-1.3,0.9-2.6,1.4-3.9c1-2.6,1.9-5.2,2.3-7.8c0.3-2.7,0.2-5.4,0-8.1c-0.2-2.7-0.4-5.5,0-8.1c0.2-1.3,0.5-2.7,1-4
		c0.4-1.3,1-2.6,1.5-3.9c1.1-2.6,2.1-5.1,2.5-7.8c0.8-5.4-0.4-11,0.5-16.3c0.5-2.7,1.5-5.4,2.7-7.9c1.2-2.6,2.3-5.1,2.8-7.7
		c0.6-2.7,0.5-5.5,0.4-8.3c0-2.7,0-5.4,0.6-8c0.6-2.8,1.8-5.4,2.9-8c1.2-2.6,2.4-5,3-7.5c1.3-5.7,0.1-11.4,1.3-16.3
		c1.5-6.1,4.9-11.2,6-15.7C275,147.6,273.5,142.8,272.6,141.1z"/>
	<path fill="none" stroke="#5E7B38" stroke-width="3" stroke-linecap="round" stroke-miterlimit="10" d="M261.8,163
		c-10.1,20.5-18.2,40.2-24.6,58.8c-6.3,18.6-11.1,36.1-14.7,52.2c-7.1,32.3-9.7,59-10.7,80c-0.6,10.5-0.4,19.6-0.3,27.2
		c0.2,7.7,0.6,14,0.9,19c0.9,10,1.6,14.7,1.6,14.7"/>
</g>
<g>
	<path fill="#8DB936" d="M260.8,64.9c-2.5,0.1-4.8,4.6-4.8,15.9c0,2.9,0.7,6.2,1.4,9.8c0.7,3.6,1.6,7.5,1.7,11.5
		c0.3,6.4-1.6,13.1-1.2,20.6c0.2,3.3,1.1,6.8,2,10.3c0.8,3.6,1.7,7.2,2,10.9c0.5,6.8-1.5,13.6-0.9,20.8c0.4,6.8,3.5,13.9,3.9,21.1
		c0.2,3.5-0.1,6.9-0.5,10.4c-0.4,3.5-0.8,7-0.5,10.5c0.3,3.5,1.1,7,1.9,10.5c0.8,3.5,1.7,7,1.9,10.6c0.2,3.5-0.2,7-0.6,10.5
		c-0.2,1.7-0.4,3.5-0.5,5.2c-0.1,1.7-0.2,3.5-0.1,5.2c0.2,3.5,1,7,1.9,10.5c0.8,3.5,1.6,7,1.8,10.5c0.1,1.8,0.1,3.5,0,5.3
		c-0.1,1.8-0.3,3.5-0.5,5.3c-0.4,3.5-0.8,7-0.6,10.5c0.2,3.6,1,7.1,1.8,10.5c0.4,1.7,0.8,3.5,1.2,5.2c0.3,1.7,0.6,3.4,0.7,5.2
		c0.2,3.6-0.1,7.2-0.5,10.8c-0.4,3.5-0.7,7-0.5,10.3c0.5,7.1,3.3,13.5,3.7,19.8c0.4,7-1.7,13.8-1.5,19.6c0.2,6.9,2.8,12.5,3.1,18
		c0.1,1.8,0.1,3.6,0,5.4c-0.1,1.7-0.2,3.4-0.4,5c-0.2,1.6-0.2,3.1-0.2,4.5c0.1,1.4,0.1,2.6,0.5,3.7c1.7,5.4,6.7,6.3,12.4,6
		c2.1,0.8,4.4,1.6,6.8,1.4c2.4-0.1,5-1.1,7.6-3.9c2-2.1,3.6-5.4,5.1-9.1c0.7-1.9,1.4-3.8,2.2-5.8c0.7-2,1.4-4,2.2-6.1
		c2.5-6.3,6.7-12.4,8.3-20.6c1.4-7.1-0.2-15.2,0.3-23c0.4-7.1,3-14.2,2.9-21.7c-0.1-7-2.8-14-3.2-21.3c-0.2-3.5,0.1-7,0.5-10.6
		c0.3-3.6,0.7-7.2,0.3-10.8c-0.7-7-3.8-13.7-4.7-20.8c-0.8-7,0.5-14.5-0.6-21.5c-1.1-7-4.7-13.4-5.9-20.3c-1.4-7-0.3-14.6-1.9-21.4
		c-0.8-3.5-2.1-6.8-3.4-10c-1.4-3.2-2.8-6.4-3.6-9.8c-1.7-7-1.3-14.6-3-21.3c-2-7-6.1-12.7-8.1-19.2c-2.2-7-2.1-14.7-4.3-21
		c-1.2-3.5-2.9-6.6-4.7-9.6c-1.7-3-3.4-5.8-4.6-8.7c-1.4-3.7-2.3-7.5-3.1-11c-0.8-3.5-1.6-6.8-2.8-9.5
		C267.1,69.3,262.7,65.9,260.8,64.9z"/>
	<path fill="none" stroke="#5E7B38" stroke-width="3" stroke-linecap="round" stroke-miterlimit="10" d="M267.7,94.4
		c11.2,55.7,17.8,103.7,22.2,144.2c2.2,20.2,3.8,38.6,5.1,55.1c0.3,4.1,0.6,8.1,0.9,12c0.3,3.9,0.5,7.7,0.7,11.4
		c0.5,7.4,0.9,14.3,1.2,20.7c0.5,12.9,0.5,24.1-0.1,33.6c-0.6,9.5-1.7,17.2-2.8,23.4c-0.3,1.5-0.6,3-0.8,4.3
		c-0.3,1.3-0.6,2.5-0.9,3.7c-0.3,1.1-0.5,2.2-0.7,3.1c-0.3,0.9-0.5,1.8-0.7,2.5c-0.4,1.5-0.7,2.6-0.9,3.3c-0.2,0.7-0.3,1.1-0.3,1.1"
		/>
</g>
<g>
	<path fill="#5E7B38" d="M339.9,79c-0.9-0.9-2.5-1-4.9,0.1c-2.5,1.1-5.8,3.6-9.5,8.1c-1.9,2.3-3.5,5.5-5.1,9
		c-0.8,1.8-1.5,3.6-2.4,5.4c-0.8,1.9-1.7,3.7-2.6,5.6c-3.1,5.8-8,11.1-10.8,18.4c-2.5,6.5-2.6,14.5-4.7,21.6
		c-2,6.5-6.2,12.3-8.2,19.1c-0.9,3.2-1.3,6.8-1.7,10.3c-0.4,3.6-0.8,7.2-1.8,10.6c-1.9,6.6-6.1,12.3-8,19.1
		c-1.9,6.6-1.6,14.1-3.5,20.8c-1.9,6.6-6.1,12.5-8,19.1c-1.9,6.7-1.6,14.1-3.4,20.8c-1.9,6.8-6.1,12.7-7.9,19.3
		c-1.9,6.8-1.4,14.1-3.2,20.7c-0.9,3.4-2.4,6.7-3.9,9.9c-1.5,3.2-2.9,6.4-3.7,9.6c-1.8,7-1.1,14.1-2.5,20.6
		c-1.7,7.2-5.5,13.8-6.6,20.1c-0.7,3.7-0.6,7.2-0.4,10.6c0.2,3.3,0.4,6.5,0.2,9.4c-0.5,7.9-2.7,15.6-1.1,20.3
		c1.9,5.6,7,5.9,12.7,5.4c4.4,1.4,9.2,2.5,14.2-2.3c3.8-3.7,6.2-11.2,10.1-17.9c3.1-5.3,8.1-9.8,11.2-16.7
		c2.6-5.9,3.2-13.5,5.7-20.4c2.3-6.2,6.8-11.9,9-18.7c2.1-6.4,1.7-13.8,3.7-20.7c1.8-6.5,5.9-12.7,7.6-19.6
		c1.6-6.7,0.8-13.9,2.3-20.8c0.7-3.4,2-6.7,3.3-10c1.3-3.3,2.5-6.7,3.1-10.1c1.3-6.8,0-13.9,1.1-20.7c1.1-6.9,4.5-13.6,5.4-20.4
		c0.9-7-0.7-13.9,0-20.6c0.4-3.5,1.4-7,2.3-10.4c0.9-3.4,1.8-6.9,2.1-10.2c0.6-7.1-1.4-13.7-1-20.2c0.5-7,3.4-13.7,3.9-19.8
		c0.6-6.9-1.1-13.2-0.2-19c0.1-0.9,0.3-1.8,0.5-2.7c0.2-0.9,0.5-1.7,0.7-2.6c0.3-0.8,0.5-1.7,0.8-2.5c0.3-0.8,0.6-1.6,0.9-2.4
		c0.6-1.5,1.2-3,1.8-4.4c0.6-1.4,1-2.8,1.3-4C340.9,86.3,340.5,81.1,339.9,79z"/>
	<path fill="none" stroke="#405230" stroke-width="3" stroke-linecap="round" stroke-miterlimit="10" d="M326.7,105.1
		c-2.6,6.4-4.6,12.9-6.4,19.3c-1.8,6.4-3.3,12.9-4.7,19.2c-1.4,6.3-2.6,12.5-3.8,18.6c-1.2,6.1-2.4,12.1-3.6,17.9
		c-4.8,23.4-9.6,44.8-14.2,64.2c-9.3,38.9-17.7,70.3-24.4,94.9c-6.8,24.6-11.9,42.4-15.2,54.1c-1.6,5.9-2.8,10.2-3.6,13.1
		c-0.8,2.9-1.1,4.3-1.1,4.3"/>
</g>
<g>
	<path fill="#5E7B38" d="M343.3,101.8c-1,0.6-1.5,2.3-1.3,4.7c0.2,1.2,0.4,2.8,0.8,4.5c0.2,0.9,0.4,1.8,0.7,2.8
		c0.3,1,0.5,2.1,0.8,3.2c0.6,2.4,1.8,4.9,2.9,7.8c1.1,2.9,2.1,6.1,2.3,9.5c0.1,2.7-0.4,5.5-1,8.4c-0.6,2.9-1.4,5.8-1.6,8.9
		c-0.4,5.5,1.2,12.1,0.2,18.7c-0.9,6-4.3,11.8-5.2,18.7c-0.8,6.6,0.8,14.2,0.6,21.6c-0.2,7.1-2.4,14.2-1.8,21.5
		c0.5,7.2,4,14.2,5.2,21.2c1.2,7,0.3,14.2,2,21c1.7,6.8,5.9,13,7.8,19.4c2,6.6,1.7,13.7,3.8,19.9c2.1,6.4,6.6,11.9,8.7,17.8
		c2.2,6.3,2.1,13.2,4.2,18.9c2.2,6.2,6.5,11.1,8.5,16.6c2.2,6.2,2,12.9,3.8,18c0.5,1.5,1.2,3,2,4.3c0.7,1.3,1.5,2.6,2.3,3.8
		c1.6,2.5,3.1,4.8,4.1,7.2c2.6,6.4,3.5,13.3,6.3,16.7c3.6,4.2,8.5,3.1,13.7,0.9c2.3,0,4.7-0.2,6.9-1.1c1.1-0.5,2.1-1.1,3.1-2
		c1-0.9,1.9-2.1,2.6-3.7c2.2-4.8,1.6-12.9,2.2-20.6c0.4-6.1,2.8-12.6,2.1-20.1c-0.3-3.3-1.4-6.6-2.5-10c-1.2-3.3-2.4-6.8-3.1-10.3
		c-1.3-6.4-0.7-13.4-2.6-20.1c-1.8-6.2-6.2-11.8-8.3-18.2c-2.1-6-2-12.9-4.3-19c-2.2-5.9-6.6-10.9-8.8-16.7c-2.2-5.8-2-12.4-4-18.1
		c-2-5.7-6.1-10.4-7.9-16.1c-1.7-5.7-1-12.1-2.4-17.6c-1.3-5.6-4.9-10.6-5.7-16.2c-1-5.7,0.9-12,0.3-18c-0.5-6.3-3.4-12.3-4-18.7
		c-0.7-6.9,0.8-14.4-0.5-21c-0.7-3.7-2.3-7.1-3.8-10.2c-1.6-3.1-3.2-6-4.5-9c-1.5-3.7-2.7-7.5-4.1-11c-1.4-3.5-2.9-6.8-4.8-9.1
		c-0.5-0.6-0.9-1.1-1.4-1.6c-0.5-0.5-0.9-0.9-1.4-1.4c-0.9-0.9-1.7-1.6-2.6-2.3c-0.9-0.6-1.7-1.2-2.4-1.7c-0.8-0.4-1.5-0.8-2.2-1.1
		c-1.3-0.6-2.5-0.9-3.5-1.1C344.5,101.8,343.8,101.8,343.3,101.8z"/>
	<path fill="none" stroke="#405230" stroke-width="3" stroke-linecap="round" stroke-miterlimit="10" d="M357.7,126.6
		c2,6.4,3.1,12.9,3.7,19.2c0.6,6.4,0.7,12.6,0.6,18.7c-0.3,12.2-1.3,23.8-1.4,35c-0.2,11.2,0.7,22,2.3,32.2
		c1.6,10.2,3.8,19.9,6.2,29c4.9,18.2,10.7,34.2,15.9,48.6c5.2,14.4,9.8,27.2,13.5,38.5c3.7,11.4,6.5,21.3,8.6,29.8
		c2,8.5,3.3,15.6,4.2,21.3c0.4,2.8,0.7,5.3,1,7.4c0.2,2.1,0.4,3.9,0.6,5.3c0.2,1.4,0.2,2.4,0.3,3.1c0.1,0.7,0.1,1,0.1,1"/>
</g>
<g>
	<path fill="#5E7B38" d="M460.9,82.6c-1.2-0.3-2.7,0.4-4.2,2.6c-1.4,2.3-2.9,6.2-3.2,12.1c-0.2,3,0.4,6.5,1.2,10.2
		c0.8,3.7,1.8,7.5,2.2,11.4c0.7,6.3-1,12.8-0.8,19.2c0.1,2.9,0.7,5.9,1.2,9.1c0.5,3.2,0.9,6.6,0.6,10c-0.5,6.3-3.7,12.3-4.4,19.3
		c-0.7,6.7,0.9,14.2,0.3,21.2c-0.6,6.8-3.6,13.3-4.2,20.3c-0.5,6.9,1.3,14.2,0.9,21.2c-0.5,6.9-3.3,13.6-3.6,20.5
		c-0.4,7,1.7,14.2,1.5,21.1c-0.3,7.1-2.8,13.9-3,20.8c-0.1,7.1,2.2,14.1,2.2,21c0,7.2-2.3,14.3-2,21c0.2,7.3,3,14,3.4,20.6
		c0.5,7.4-1.2,14.9-0.3,21.2c1,7.6,4.5,13.4,6,19.2c2,7.7,2.5,15.7,5.5,19.6c3.6,4.7,8.5,3.2,13.7,1c4.6-0.1,9.5-0.7,12.6-6.7
		c2.4-4.6,2.3-12.4,3.9-19.8c1.3-5.8,4.7-11.6,5.6-18.8c0.8-6.3-1-13.5-0.5-20.6c0.4-6.5,3.1-13,3.4-20c0.2-6.6-2.1-13.4-2-20.4
		c0-6.6,2.4-13.4,2.3-20.3c-0.1-6.7-2.6-13.3-2.8-20.2c-0.2-6.7,1.9-13.7,1.6-20.5c-0.3-6.8-3-13.2-3.4-20
		c-0.4-6.8,1.6-13.9,1.1-20.6c-0.5-6.8-3.4-13.2-3.9-19.8c-0.6-6.9,1.2-14,0.6-20.6c-0.7-7-3.7-13.4-4.7-20.2
		c-0.5-3.7-0.6-7.6-0.8-11.4c-0.2-3.8-0.5-7.7-1.6-11.2c-1.2-3.9-3.1-7.3-4.9-10.2c-1.9-3-3.7-5.7-5-8.5c-1.6-3.5-2.6-7-3.5-10.3
		c-0.9-3.3-1.5-6.2-2.5-8.5c-1.9-4.4-3.6-7.6-4.9-9.8c-0.7-1.1-1.4-2-1.9-2.8C461.8,83.5,461.3,83,460.9,82.6z"/>
	<path fill="none" stroke="#405230" stroke-width="3" stroke-linecap="round" stroke-miterlimit="10" d="M465.1,111
		c1.7,6.7,3.5,13.2,4.8,19.8c1.4,6.6,2.1,13.2,2.4,19.6c0.6,12.9,0,25.2-0.2,37c-0.6,23.7-0.9,45.4-1.1,65.2
		c-0.4,39.7-0.2,71.8,0.2,97.1c0.9,50.5,2.7,73.4,2.7,73.4"/>
</g>
<g>
	<path fill="#5E7B38" d="M576.2,25.5c-1.2-0.3-2.7,0.6-4.2,3.1c-1.5,2.4-3.2,6.4-5.2,12.1c-1,2.9-1.7,6.5-2.4,10.5
		c-0.8,4-1.7,8.2-3.3,12.4c-2.4,6.7-7.2,12.8-9.7,21.4c-0.5,1.9-0.9,3.9-1.2,6c-0.3,2.1-0.5,4.3-0.6,6.6c-0.3,4.5-0.4,9-1,13.3
		c-1.1,7.9-4.2,15.3-4.9,23.3c-0.4,3.8-0.1,7.7,0,11.6c0.1,3.9,0.3,7.9-0.3,11.7c-0.6,3.7-1.7,7.2-2.9,10.8
		c-1.3,3.5-2.5,7.1-3.2,10.8c-0.7,3.7-0.9,7.5-1.1,11.4c-0.1,1.9-0.2,3.9-0.4,5.8c-0.2,1.9-0.5,3.8-0.9,5.7
		c-0.8,3.7-2.4,7.2-3.8,10.7c-0.8,1.7-1.5,3.5-2.2,5.2c-0.7,1.8-1.3,3.5-1.8,5.4c-0.5,1.8-0.8,3.7-1.1,5.6c-0.3,1.9-0.6,3.8-0.8,5.8
		c-0.5,3.9-0.9,7.8-2.1,11.4c-2.2,7.5-6.8,14-9,21.2c-1.2,3.7-1.8,7.6-2.4,11.5c-0.7,3.9-1.3,7.7-2.4,11.3
		c-1.3,3.8-3.1,7.4-4.9,10.9c-1.8,3.5-3.6,7-4.8,10.6c-2.6,7.7-2.6,15.7-4.9,22.8c-2.5,8-7.2,15.2-9.1,22.3
		c-2.3,8.4-1.4,15.9-2.5,22.7c-1.4,9-4.1,17.9-2.9,23.2c1.5,6.4,6.8,6.4,12.5,5.7c4.3,1.4,9.2,2.5,14.5-2.8c4-4,7.1-12.3,11.7-19.5
		c3.6-5.7,9.2-10.5,13.1-18c1.7-3.2,2.9-6.9,4.1-10.8c1.2-3.9,2.4-7.9,4.1-11.7c3-6.9,8.3-13.1,11.2-20.8c0.7-1.8,1.3-3.7,1.7-5.6
		c0.5-1.9,0.9-3.9,1.3-5.9c0.8-4,1.6-8,2.9-11.9c2.5-7.4,7.1-14.4,9.4-22.3c1.1-3.8,1.5-7.8,2-11.8c0.4-4,0.7-8.1,1.7-12
		c1.8-7.8,5.8-15.4,7.2-23.5c0.7-4,0.7-8,0.7-12.1c0-2,0-4,0-6c0-2,0.1-4,0.3-6c1-8.1,4-16.3,4.5-24.3c0.2-4.1-0.2-8.2-0.7-12.1
		c-0.6-4-1.2-7.9-1.2-11.9c0-4.1,0.3-8.3,0.8-12.5c0.5-4.2,0.7-8.3,0.4-12.1c-0.7-8.1-3.8-14.9-4.3-22c-0.3-3.8,0.1-7.6,0.6-11.2
		c0.5-3.6,1.1-7.1,1.2-10.5c0.2-7.6-1.6-14.9-1.2-21.9c0.6-8.7,3.4-17.2,3.1-24c-0.2-6.4-1.3-11-2.5-14.1
		C578.2,27.9,576.9,26.2,576.2,25.5z"/>
	<path fill="none" stroke="#405230" stroke-width="3" stroke-linecap="round" stroke-miterlimit="10" d="M572.1,59.3
		c-3.4,15.5-7.2,30.2-8.3,44.8c-1.3,14.6-0.9,28.7-1.6,42.2c-0.2,3.4-0.4,6.7-0.5,10c-0.3,3.3-0.6,6.6-0.8,9.8
		c-0.2,3.2-0.6,6.4-1,9.6c-0.2,1.6-0.4,3.1-0.6,4.7c-0.2,1.6-0.4,3.1-0.6,4.6c-0.5,3.1-0.9,6.1-1.3,9.1c-0.4,3-1,5.9-1.5,8.9
		c-1,5.9-2.2,11.5-3.3,17.1c-4.7,22.2-10.2,41.9-15.6,59.6c-5.4,17.7-10.7,33.2-15.5,46.8c-4.8,13.6-9.1,25.3-12.7,35.3
		c-3.6,10-6.5,18.2-8.7,24.7c-2.2,6.5-3.8,11.4-4.8,14.6c-1,3.2-1.4,4.8-1.4,4.8"/>
</g>
<g>
	<path fill="#8DB936" d="M398,51.2c-1.2,0.3-2,1.9-2.1,4.7c-0.1,2.8,0.3,6.9,1.1,12.5c0.1,0.7,0.3,1.5,0.4,2.2
		c0.2,0.8,0.4,1.6,0.6,2.4c0.5,1.6,0.9,3.4,1.5,5.2c1,3.6,1.9,7.6,2.1,11.7c0.3,6.6-2,13.3-2,21.2c0,3.4,0.6,7.2,1.1,11
		c0.5,3.9,1.1,7.8,1.1,11.8c0,7.2-2.6,14.3-2.7,22c-0.1,7.3,2.2,15.2,2.1,22.9c-0.1,7.4-2.6,14.6-2.7,22.3c-0.1,7.5,2.2,15.3,2.1,23
		c-0.1,7.6-2.5,15-2.5,22.6c0,7.6,2.4,15.4,2.5,23c0.1,7.7-2.2,15.4-1.9,23c0.2,7.8,3,15.5,3.4,23c0.5,7.9-1.5,15.9-0.8,23.4
		c0.7,8.1,3.9,15.3,4.9,22.6c0.6,4.1,0.5,8.2,0.6,12.2c0.1,4,0.2,7.9,0.9,11.4c1.6,8.3,5.9,14.4,8,20.7c0.7,2.1,1.3,4.2,1.9,6.2
		c0.6,2.1,1.2,4.1,1.8,5.9c1.2,3.7,2.4,6.9,4.1,8.9c4.2,4.8,8.9,2.5,13.8-0.6c4.5-0.7,9.4-1.9,11.7-8.8c0.9-2.6,1.1-6,1.1-9.8
		c0.1-3.8,0.1-7.9,0.5-11.9c0.6-6.4,3.5-12.9,3.7-20.8c0.1-6.8-2.1-14.5-2.2-22.2c0-7,2.3-14.3,2-21.9c-0.2-7.1-2.9-14.5-3.2-22.1
		c-0.3-7.2,1.7-14.8,1.3-22.3c-0.4-7.3-3.3-14.5-3.8-22c-0.5-7.4,1.3-15.1,0.6-22.6c-0.6-7.4-3.8-14.4-4.5-21.8
		c-0.8-7.5,0.7-15.4-0.2-22.8c-0.9-7.5-4.3-14.4-5.3-21.6c-1.2-7.6,0.1-15.7-1.2-22.9c-1.4-7.6-4.9-14.2-6.4-21.2
		c-1.6-7.7-0.8-15.9-2.6-22.9c-2-8-6.3-14.3-8.6-20.9c-1.5-4.1-2.5-8.4-3.6-12.4c-1.1-4-2.4-7.6-4-10.5c-3.2-5.4-6.4-8.7-8.9-10.8
		C401,52.2,399.1,51.5,398,51.2z"/>
	<path fill="none" stroke="#5E7B38" stroke-width="3" stroke-linecap="round" stroke-miterlimit="10" d="M410,81.8
		c1.7,7.5,2.9,14.9,3.8,22.2c0.9,7.3,1.5,14.4,2.1,21.5c0.6,7,1.2,13.9,1.6,20.6c0.5,6.7,0.9,13.4,1.3,19.8
		c1.5,25.9,2.4,49.7,3.2,71.5c0.8,21.7,1.6,41.4,2.5,59.2c0.5,8.9,0.9,17.2,1.4,25.1c0.3,3.9,0.5,7.8,0.7,11.5
		c0.3,3.7,0.5,7.3,0.8,10.7c2.2,27.7,4.6,47.7,6.6,60.7c0.9,6.5,1.8,11.3,2.3,14.5c0.6,3.2,0.9,4.7,0.9,4.7"/>
</g>
<g>
	<path fill="#8DB936" d="M83.7,56c-1.2,0.4-1.9,2-1.9,4.8c0,1.4,0.2,3.1,0.5,5.1c0.1,1,0.3,2.2,0.5,3.4c0.1,0.6,0.2,1.2,0.3,1.9
		c0.1,0.3,0.1,0.6,0.2,1c0,0.3,0.1,0.7,0.1,1.1c0.2,1.5,0.6,3,1.1,4.6c0.3,0.8,0.5,1.6,0.7,2.5c0.2,0.9,0.5,1.7,0.7,2.6
		c0.2,0.9,0.6,1.8,0.7,2.7c0.2,1,0.4,1.9,0.6,2.9c0.2,1,0.3,2,0.5,3c0.1,1,0.2,2,0.2,3.1c0.3,6.5-2.4,13.2-2.6,21
		c-0.2,6.9,1.7,15,1.4,23c-0.2,3.7-0.8,7.4-1.5,11.2c-0.6,3.9-1.3,7.8-1.1,12.1c0.1,2,0.3,4,0.7,6.2c0.4,2.1,0.8,4.2,1.3,6.3
		c1,4.3,2.3,8.5,2.9,12.6c1.3,7.9,0.5,15.9,2.1,23.4c1.5,7.3,5.3,14.2,6.3,21c0.9,6.7-0.9,13.4-0.7,20.2c0.3,6.8,2.6,14,2.5,21.2
		c-0.2,7.3-2.9,14.5-3.3,21.8c-0.4,7.6,1.6,15.5,1.4,23c-0.3,7.9-2.9,15.4-3.2,22.6c-0.2,7.8,1.9,15,1.8,22
		c-0.2,7.8-2.9,15.3-3,21.9c-0.1,2,0,3.8,0.3,5.6c0.2,1.8,0.4,3.5,0.7,5.2c0.6,3.4,1.2,6.6,1.3,9.7c0.2,8.2-1.5,16.3,0,21
		c1.9,5.8,7.1,6,12.8,5.2c2.2,0.6,4.5,1.2,6.9,0.9c1.2-0.2,2.4-0.6,3.7-1.3c1.3-0.7,2.5-1.8,3.7-3.3c3.8-4.5,5.9-13.4,9.3-21.6
		c2.5-6.4,7.1-12.5,9.1-20.9c0.5-1.8,0.7-3.7,0.9-5.6c0.2-1.9,0.3-3.9,0.4-6c0.1-4,0.2-8.2,0.8-12.2c1.1-7.3,4.3-14.6,4.9-22.5
		c0.6-7.4-1.3-15.2-1-22.9c0.3-7.3,3-14.7,3.1-22.6c0.1-7.6-2.3-15.4-2.6-23.4c-0.3-7.9,1.4-16.4,0.2-24.7c-1.1-8.3-5.1-16-7.3-23.9
		c-2.2-8-2.5-16.5-5-23.5c-2.5-7.2-7.2-12.8-9.3-19.3c-1.1-3.3-1.6-6.9-1.9-10.2c-0.2-1.7-0.3-3.4-0.5-5.1c-0.1-0.8-0.2-1.7-0.4-2.5
		c-0.1-0.8-0.3-1.7-0.4-2.5c-1.6-6.8-5.1-13.1-6.3-20.1c-1.3-7.5-0.3-15.8-1.8-23c-0.8-4-2.3-7.7-3.8-11.2c-0.7-1.7-1.6-3.5-2.3-5.2
		c-0.4-0.8-0.7-1.7-1-2.5c-0.3-0.8-0.7-1.7-0.9-2.6c-0.4-1.1-0.7-2.1-1-3.2c-0.3-1.1-0.5-2.1-0.9-3.2c-0.6-2.1-1.1-4.2-1.6-6.2
		c-0.6-2-1.2-4-1.9-5.8c-0.2-0.5-0.3-0.9-0.5-1.3c-0.2-0.4-0.4-0.9-0.6-1.3c-0.4-0.8-0.8-1.6-1.3-2.3c-0.8-1.4-1.6-2.6-2.4-3.7
		c-0.9-1.1-1.7-2.1-2.5-3c-0.8-0.9-1.5-1.6-2.3-2.3c-0.7-0.7-1.5-1.2-2.2-1.7C86.7,56.9,84.8,56.2,83.7,56z"/>
	<path fill="none" stroke="#5E7B38" stroke-width="3" stroke-linecap="round" stroke-miterlimit="10" d="M96.5,86.5
		c1.7,7.6,2.7,15.1,3.3,22.4c0.6,7.4,1,14.6,1.3,21.6c0.6,14.1,1.3,27.7,3.4,40.6c2.2,12.9,5.7,25,8.7,36.5c1.5,5.8,2.9,11.5,4.1,17
		c1.2,5.6,2.1,11.1,2.7,16.5c1.3,10.8,1.7,21.2,1.8,31c0.1,9.9-0.2,19.3-0.5,28.2c-0.6,17.8-1.1,33.6-1.8,47.5
		c-0.7,13.9-1.7,25.9-2.9,36c-1.2,10.1-2.5,18.4-3.6,25c-0.6,3.3-1.2,6.1-1.7,8.5c-0.5,2.4-1,4.4-1.3,6c-0.3,1.6-0.6,2.8-0.8,3.6
		c-0.2,0.8-0.3,1.2-0.3,1.2"/>
</g>
<g>
	<path fill="#8DB936" d="M667,67.6c-2.4-0.4-5.4,4-7,16c-0.8,6.1,1,14.6,0.4,23.2c-0.4,6.9-3.2,13.7-3.4,21.8
		c-0.2,7.1,2.1,15.3,2,23.2c-0.1,7.3-2.5,14.5-2.4,22.6c0.2,7.7,3,15.9,3.9,24.2c0.9,8-0.3,16.4,1.9,25.1c0.3,1.1,0.6,2.1,0.9,3.2
		c0.4,1.1,0.8,2.1,1.2,3.1c0.8,2.1,1.9,4.2,2.9,6.2c0.5,1,1,2.1,1.6,3.1c0.5,1,1.1,2.1,1.6,3.1c1.1,2.1,2.2,4.1,3.1,6.2
		c1,2,1.9,4.1,2.7,6.2c0.9,2,1.7,4.1,2.5,6.2c1.7,4,3.6,8,6,11.5c4.9,7,11.8,12,16.3,17.9c4.7,6,7,13,10.5,18.3c0.9,1.4,2,2.6,3,3.8
		c1,1.2,2.1,2.4,3.1,3.5c0.5,0.6,1,1.2,1.5,1.7c0.5,0.6,0.9,1.2,1.3,1.8c0.9,1.2,1.7,2.4,2.4,3.8c0.6,1.4,1.1,2.9,1.6,4.4
		c0.4,1.5,0.6,3.1,0.9,4.6c0.1,0.8,0.3,1.5,0.4,2.3c0.1,0.8,0.2,1.6,0.4,2.3c0.2,1.5,0.7,3,1.1,4.4c0.4,1.6,1,3.1,1.7,4.6
		c0.7,1.5,1.3,3,2,4.5c0.3,0.8,0.7,1.5,1,2.2c0.3,0.8,0.6,1.5,0.9,2.3c0.6,1.5,1.1,3.1,1.4,4.7c1.5,7.1,0.2,14.7,1.3,21.1
		c0.6,3.8,1.8,7.2,3,10.5c1.2,3.2,2.4,6.3,3.1,9.4c1.8,8.2,2,16.9,4.8,21.2c3.4,5.3,8.4,3.9,13.7,1.6c4.6,0.1,9.5-0.3,12.9-6.9
		c2.6-5,2.7-13.7,4.4-22.2c0.6-3.4,1.8-6.7,2.8-10.3c0.5-1.8,1-3.7,1.4-5.6c0.4-2,0.6-4,0.7-6.2c0.3-7.5-2.2-16-3.1-24.8
		c-0.1-1-0.2-2-0.2-3c-0.1-1-0.1-2-0.2-3.1c-0.1-2.1-0.1-4.2-0.2-6.3c-0.3-4.3-0.5-8.7-1.8-13.1c-1-4.1-3.2-8.2-5.2-12.2
		c-1.1-2-2.3-4-3.4-6c-1.1-2-2.2-4-3.3-6.1c-3.9-7.9-6.9-16.8-12-23.6c-5-6.7-11.9-11-16.9-16.7c-4.9-5.6-7.8-12.5-11.9-17.5
		c-4.1-5-9.6-8.4-12.6-13.5c-0.8-1.3-1.4-2.6-1.9-4.1c-0.3-0.7-0.5-1.5-0.7-2.2c-0.2-0.7-0.4-1.5-0.6-2.3c-0.2-0.8-0.4-1.5-0.6-2.3
		c-0.2-0.8-0.4-1.5-0.6-2.3c-0.4-1.5-0.9-3-1.4-4.4c-2.3-5.9-6.6-11.2-8.3-17.7c-1.8-6.7-1.1-14.4-2.5-21.2
		c-1.5-7.2-5.2-13.6-6.6-20.6c-1.5-7.6-0.8-15.7-2.3-22.5c-1.7-7.7-5.6-13.9-7.2-20.4c-2-8.1-1.6-16.4-3.3-22.4
		C672.6,73.3,668.7,68.9,667,67.6z"/>
	<path fill="none" stroke="#5E7B38" stroke-width="3" stroke-linecap="round" stroke-miterlimit="10" d="M669.8,99.7
		c1.1,15.1,2.2,29.7,3.2,43.7c1.1,14,2,27.5,3.6,40.4c1.6,12.9,4,25.2,7.7,36.6c3.7,11.4,8.9,21.8,15.1,30.8
		c6.2,9.1,12.8,17.1,19.1,24.7c6.2,7.6,12,14.9,16.9,22.2c1.2,1.8,2.4,3.6,3.4,5.5c0.5,0.9,1.1,1.8,1.6,2.7c0.5,0.9,1,1.9,1.4,2.8
		c2,3.6,3.5,7.3,5.1,10.9c2.9,7.3,5,14.3,6.7,21c3.1,13.4,4.4,25.3,5.2,35.4c0.8,10.1,1,18.5,1.2,25.1c0.3,13.2,0.4,19.5,0.4,19.5"
		/>
</g>
<g>
	<path fill="#5E7B38" d="M916.6,73.4c-2.4,0.1-4.8,4.7-4.7,15.6c0,1.4,0.2,2.9,0.4,4.5c0.2,1.6,0.5,3.3,0.9,5
		c0.6,3.5,1.5,7.2,1.4,11.1c0,6.2-2.2,12.5-2.3,19.7c0,1.6,0.2,3.2,0.4,4.9c0.2,1.7,0.6,3.3,0.8,5.1c0.5,3.4,1,7,1,10.5
		c0,0.8-0.1,1.6-0.1,2.4c-0.1,0.8-0.2,1.6-0.4,2.4c-0.3,1.6-0.7,3.2-1.1,4.8c-0.4,1.6-0.7,3.2-1,4.9c-0.3,1.6-0.5,3.3-0.6,5
		c-0.5,6.4,1.6,13.5,0.8,20.3c-0.2,1.6-0.5,3.2-0.8,4.8c-0.4,1.6-0.8,3.2-1.3,4.8c-1,3.2-2,6.3-2.4,9.6c-0.3,3.2-0.3,6.6-0.2,10
		c0.1,1.7,0.1,3.4,0.1,5.1c0,1.7-0.1,3.4-0.4,5c-1.2,6.5-4.5,12.5-5.9,18.8c-0.3,1.6-0.5,3.3-0.6,4.9c-0.1,1.7-0.1,3.4-0.2,5
		c-0.2,3.4-0.3,6.7-1,9.9c-0.7,3.3-2.1,6.3-3.5,9.3c-0.7,1.5-1.4,3-2,4.5c-0.6,1.5-1.1,3-1.6,4.6c-1.8,6.4-1.1,13.4-3,19.6
		c-1,3.2-2.4,6.3-4,9.2c-1.5,2.9-3,5.4-3.8,7.9c-0.9,2.6-1.3,5.1-1.6,7.4c-0.4,2.3-0.7,4.2-2,6.3c-2.8,4.5-8.9,8.2-12.9,13.6
		c-2.4,3.2-4.2,6.7-5.7,10.3c-1.5,3.6-2.8,7.2-4.3,10.8c-2,4.7-4.1,9.9-5,15c-0.9,5.1-0.6,9.7,0.8,12.5c0.8,1.7,1.9,2.7,2.9,3.3
		c1.1,0.6,2.2,0.7,3.4,0.6c2.3-0.3,4.8-1.5,7.4-2.5c2.3,0,4.7-0.2,6.9-0.8c0.6-0.1,1.1-0.3,1.6-0.5c0.5-0.2,1.1-0.4,1.6-0.6
		c0.5-0.2,1-0.4,1.5-0.7c0.5-0.2,0.9-0.5,1.4-0.8c1.4-0.9,2.5-2.1,3.8-3.7c1.4-1.6,3.2-3.6,5.7-5.3c2-1.4,4.5-2.4,7.2-3.7
		c2.7-1.3,5.7-2.7,8.6-5.1c2.5-2.1,4.9-5,7.5-8.3c2.5-3.3,5.2-7.1,8.1-11.1c2.7-3.6,5.4-7.1,8-10.7c2.5-3.6,4.8-7.2,6.3-11
		c1.4-3.6,2.1-7.2,2.6-10.9c0.5-3.6,1.1-7.3,2.1-10.8c1.1-3.3,2.5-6.6,4-10c1.5-3.3,3-6.7,3.8-10.3c0.7-3.5,0.9-7.1,1-10.7
		c0.1-1.8,0.1-3.6,0.2-5.4c0.1-1.8,0.2-3.6,0.5-5.4c0.5-3.5,1.7-7,2.8-10.5c1-3.5,2-7.1,2.3-10.6c0.2-1.8,0.2-3.6,0.1-5.3
		c-0.1-1.8-0.3-3.6-0.5-5.4c-0.4-3.6-0.8-7.1-0.6-10.6c0.1-3.6,0.7-7.2,1.4-10.8c0.3-1.8,0.6-3.6,0.9-5.4c0.2-1.8,0.3-3.6,0.2-5.3
		c-0.1-3.6-0.8-7.1-1.6-10.5c-0.8-3.4-1.7-6.8-2-10.3c-0.5-7.1,0.9-14.7,0-21.6c-0.2-1.8-0.7-3.5-1.2-5.2c-0.5-1.7-1.1-3.4-1.7-5
		c-0.6-1.6-1.2-3.2-1.7-4.9c-0.5-1.6-0.9-3.2-1.3-4.9c-1.6-7.1-0.7-14.8-2.6-21.2c-1-3.6-2.5-6.8-4.1-9.8c-1.6-3-3.2-5.9-4.2-8.8
		c-0.6-1.8-1.1-3.7-1.5-5.6c-0.5-1.8-0.9-3.7-1.3-5.4c-0.8-3.5-1.5-6.8-2.6-9.4C922.9,77.6,918.5,74.3,916.6,73.4z"/>
	<path fill="none" stroke="#405230" stroke-width="3" stroke-linecap="round" stroke-miterlimit="10" d="M923.4,102.2
		c0.4,1.7,0.6,3.4,0.9,5.1c0.3,1.7,0.5,3.4,0.8,5.1c0.5,3.4,1.1,6.7,1.5,10c0.8,6.6,1.7,13.1,2.1,19.5c0.3,3.2,0.6,6.4,0.8,9.5
		c0.2,3.1,0.3,6.3,0.5,9.3c0.4,6.2,0.3,12.2,0.5,18.1c0.2,23.7-1.5,45.3-4.1,64.9c-2.7,19.6-6.3,37.1-10.3,52.8
		c-0.5,1.9-1,3.9-1.5,5.8c-0.5,1.9-1,3.8-1.5,5.6c-1.1,3.7-2.1,7.2-3.1,10.6c-2,6.9-4.2,13.2-6.7,18.9c-1.3,2.8-2.7,5.5-4.2,8
		c-1.5,2.5-3.2,4.8-4.9,6.9c-3.4,4.3-6.8,8-9.9,11.4c-3.1,3.4-5.9,6.6-8.3,9.5c-2.4,2.9-4.4,5.7-5.9,8.2c-3.1,5.1-4.3,9.3-4.7,12
		c-0.1,0.7-0.2,1.3-0.2,1.8c-0.1,0.5-0.1,0.9-0.1,1.3c0,0.7,0,1,0,1"/>
</g>
<g>
	<path fill="#5E7B38" d="M836.4,103.7c-2.4,0.2-4.8,4.4-4.7,14.4c0,2.6,0.8,5.5,1.5,8.6c0.7,3.2,1.5,6.6,1.8,10.1
		c0.2,2.8-0.2,5.7-0.6,8.8c-0.4,3-0.8,6.2-0.5,9.5c0.2,2.9,1.1,5.9,2,9c0.9,3.1,1.7,6.3,2,9.5c0.3,3,0,6-0.3,9.1
		c-0.3,3.1-0.7,6.2-0.4,9.4c0.3,3,1.2,6,2.1,9.1c0.9,3.1,1.8,6.2,2.1,9.3c0.5,6.1-1.2,12.2-0.7,18.5c0.5,6.1,3.6,12.1,4.1,18.3
		c0.5,6.1-1.2,12.4-0.7,18.5c0.3,3.1,1.1,6.1,2,9.1c0.4,1.5,0.9,3,1.3,4.5c0.3,1.5,0.6,3,0.8,4.6c0.3,3.1-0.1,6.2-0.4,9.3
		c-0.3,3.1-0.6,6.2-0.3,9.2c0.5,6.2,3.6,12.1,4.2,18.1c0.6,6.3-1.1,12.7-0.4,18.6c0.7,6.4,3.9,12.1,4.7,17.9
		c0.9,6.5-0.4,13.2,0.7,18.8c1.2,6.6,5,11.6,6.6,16.7c2.1,6.8,2.8,13.9,5.8,17.3c3.7,4.2,8.6,2.8,13.7,0.7c4.6-0.2,9.5-0.7,12.5-6.3
		c2.3-4.3,2.1-11.4,3.4-18.2c0.5-2.7,1.6-5.4,2.6-8.3c1-2.9,2-5.9,2.2-9.3c0.4-5.8-1.6-12.4-1.6-18.9c0-6,2.3-12.2,2-18.7
		c-0.3-6.1-3.2-12.2-3.7-18.6c-0.6-6.1,1.1-12.6,0.3-18.9c-0.8-6.1-4.2-11.9-5.2-18.1c-1-6.1,0.1-12.8-1-18.9
		c-1.2-6.1-4.9-11.6-6.3-17.7c-0.3-1.5-0.6-3.1-0.7-4.7c-0.2-1.6-0.3-3.2-0.3-4.8c-0.2-3.2-0.4-6.4-1.2-9.4
		c-1.5-6.1-5.6-11.3-7.3-17.1c-0.9-3-1.2-6.3-1.6-9.4c-0.4-3.2-0.8-6.3-1.7-9.2c-1-3-2.5-5.8-4.1-8.4c-1.6-2.7-3.2-5.3-4.2-8.1
		c-1.1-3-1.6-6.3-2.2-9.4c-0.6-3.2-1.2-6.2-2.2-8.9c-2.5-6.1-6.9-10.6-9.3-15.7c-2.9-6.3-3.5-13.3-6-17.8
		C842.6,107.2,838.3,104.4,836.4,103.7z"/>
	<path fill="none" stroke="#405230" stroke-width="3" stroke-linecap="round" stroke-miterlimit="10" d="M843.4,129.4
		c5.7,24.3,10.4,47,14.2,68c3.8,21,6.9,40.4,9.5,58.1c5,35.4,8,64.3,10.2,86.9c1.1,11.3,1.9,21.1,2.6,29.5
		c0.7,8.3,1.2,15.2,1.7,20.6c0.8,10.9,1.4,16,1.4,16"/>
</g>
<g>
	<path fill="#8DB936" d="M826.3,20.8c-1.1,0.5-1.7,2.2-1.2,5.2c0.2,1.5,0.7,3.4,1.4,5.7c0.3,1.1,0.7,2.4,1.2,3.7
		c0.4,1.3,0.9,2.8,1.5,4.3c0.3,0.8,0.6,1.6,1,2.4c0.3,0.8,0.7,1.7,1.1,2.6c0.4,0.9,0.9,1.8,1.3,2.7c0.4,0.9,0.9,1.9,1.3,2.9
		c0.5,1,0.9,2,1.4,3c0.4,1,0.8,2.1,1.2,3.1c0.8,2.1,1.5,4.3,2,6.6c0.4,1.8,0.6,3.6,0.7,5.5c0.1,0.9,0.1,1.9,0.1,2.8
		c0,0.9,0,1.9,0,2.9c0,1,0,1.9,0,2.9c0,1,0,2-0.1,3c0,2,0.1,4,0.2,6.1c0.1,1.8,0.4,3.7,0.7,5.7c0.3,1.9,0.7,3.9,0.9,5.9
		c0.1,1,0.3,2,0.4,3c0.1,1,0.2,2,0.2,3.1c0.1,1,0.1,2.1,0.1,3.1c0,1-0.1,2-0.2,3.1c-0.7,7.5-4.4,14.1-6.4,21.9
		c-1.9,7.4-2.1,16.3-4.7,24.5c-2.6,7.9-7.5,15-10.2,23.8c-1.3,4.3-2,9-2.6,13.8c-0.6,4.8-1.1,9.7-1.9,14.2
		c-1.8,9.1-5.5,17.5-6.6,26.4c-1.2,9,0.3,18.1-0.7,26.6c-1,8.6-4.3,16.5-5.5,24.3c-1.2,8.1-0.2,16.2-2,23.8c-1.8,8-6.2,15.4-8.4,23
		c-2.3,8.2-2.4,16.7-4.7,24.5c-2.5,8.7-7.4,16.8-9.4,24.5c-2.4,9.2-1.6,17.2-2.7,24.6c-1.5,9.7-4.5,19.3-3.4,24.8
		c1.3,6.8,6.6,6.7,12.5,5.9c4.3,1.5,9.2,2.5,14.8-3.5c4.2-4.6,7.5-13.7,12.3-21.8c3.8-6.4,9.4-11.9,13.4-20.2
		c3.4-7.1,5-16.3,8.5-24.8c3.1-7.7,8.4-15,11.3-23.9c2.7-8.4,2.9-17.9,4.9-27.2c1.9-8.8,5.7-17.8,6.8-26.9c1-8.9-0.8-17.8-0.3-26.4
		c0.5-8.5,3.3-17,3.7-25.1c0.5-8.1-1.4-16-0.6-23.8c0.8-7.9,4.3-15.3,5.7-23.2c1.4-8.1,0.6-16.5,2.1-24.8c1.5-8.7,5.3-17.7,6.1-26.7
		c0.8-9.5-1.5-18.5-2.3-27.5c-0.2-2.4-0.3-4.9-0.4-7.3c-0.1-2.4-0.1-4.9-0.3-7.3c-0.1-2.4-0.3-4.8-0.6-7.1c-0.3-2.3-0.7-4.6-1.3-6.7
		c-1.3-4.8-3.4-8.9-5.6-12.8c-1.1-1.9-2.2-3.8-3.2-5.6c-1.1-1.8-2.1-3.6-3-5.5c-1.2-2.3-2.2-4.5-3.2-6.8c-1.1-2.2-2-4.5-3-6.6
		c-1.1-2.1-2-4.1-3.1-6c-1.1-1.8-2.2-3.5-3.3-5C835,23.2,828.4,21.2,826.3,20.8z"/>
	<path fill="none" stroke="#5E7B38" stroke-width="3" stroke-linecap="round" stroke-miterlimit="10" d="M845.3,52.9
		c6.7,16.2,10.1,32.9,10.9,49c0.4,8,0.1,16-0.9,23.6c-0.9,7.7-2.4,15.1-4,22.3c-3.3,14.4-7.4,28-10.5,41.3
		c-3.3,13.2-5.2,26.2-6.6,38.5c-1.4,12.4-2.3,24.2-3.2,35.3c-1,11.2-2.1,21.8-3.5,31.7c-0.7,5-1.6,9.8-2.5,14.4
		c-1,4.6-2,9.2-3.1,13.5c-2.2,8.7-4.5,16.8-6.9,24.3c-4.7,15.1-9.3,27.9-13,38.9c-3.8,10.9-6.8,20-9.1,27.1
		C788,427.2,786,434,786,434"/>
</g>
<g>
	<path fill="#5E7B38" d="M801,73.8c-0.9-0.8-2.6-0.8-5,0.6c-1.2,0.7-2.6,1.8-4.3,3.3c-1.6,1.5-3.3,3.4-5.3,5.8
		c-1,1.2-1.9,2.7-2.8,4.3c-0.9,1.6-1.7,3.4-2.6,5.2c-1.7,3.7-3.5,7.7-5.6,11.5c-3.5,6.1-8.9,11.5-12.3,19.4
		c-0.7,1.7-1.3,3.6-1.8,5.6c-0.3,1-0.5,2-0.7,3c-0.2,1-0.4,2-0.6,3.1c-0.4,2.1-0.8,4.1-1.2,6.2c-0.4,2.1-0.8,4.2-1.4,6.2
		c-0.6,1.9-1.1,3.7-1.8,5.6c-0.7,1.8-1.5,3.7-2.2,5.6c-1.3,3.8-2.8,7.7-3.3,11.9c-0.3,2-0.5,4.1-0.4,6.2c0,2.1,0.1,4.3,0.2,6.4
		c0.1,2.2,0.3,4.3,0.5,6.5c0.2,2.2,0.1,4.3,0.2,6.5c0,8.2-1.9,16.5-0.8,25c1.1,8.3,5.1,16.3,6.9,24.3c1.8,7.9,1.6,16.1,3.9,23.7
		c2.3,7.6,7.1,14.5,9.5,21.6c2.5,7.3,2.7,15.2,5.2,22.3c2.6,7.3,7.5,13.7,10.1,20.7c2.8,7.4,3.3,15.4,6.1,22.3
		c3,7.4,8.1,13.3,11.1,19.9c3.3,7.4,4.6,15.7,7.8,21.9c3.8,7.4,9.4,12.1,13,17.5c4.8,7.2,8.3,15.2,12.6,18.1
		c5.2,3.6,9.2,0.3,13.2-3.8c4.2-1.7,8.7-4,9.3-11.3c0.5-5.6-2.6-13.5-3.9-21.7c-1-6.4,0-13.5-2-21.3c-1.7-6.7-6.1-13.5-8.4-20.9
		c-2.1-6.8-2-14.4-4.5-21.7c-2.3-6.8-7.1-13.1-9.7-20.2c-2.5-6.8-2.9-14.6-5.6-21.7c-2.6-6.8-7.6-12.8-10.4-19.7
		c-2.7-6.8-3.3-14.5-5.9-21.1c-2.6-6.6-7.3-12.1-9.6-18.5c-2.3-6.5-2.1-13.9-3.8-20.1c-0.9-3.2-2.2-6.2-3.5-9.2
		c-1.3-3-2.4-6.1-2.9-9.2c-1-6.7,0.6-13.7,0.5-20.1c-0.2-3.4-0.8-6.7-1.4-10c-0.4-1.6-0.5-3.3-0.7-4.9c-0.2-1.6-0.3-3.3-0.2-4.9
		c0.3-3.6,1-7.1,2.1-10.5c0.5-1.7,0.9-3.4,1.4-5.1c0.5-1.7,0.8-3.3,1-4.9c0.2-1.8,0.4-3.6,0.4-5.4c0.1-1.8,0-3.5,0-5.2
		c0-1.7,0-3.4,0.1-5c0.1-1.7,0.2-3.3,0.6-4.9c0.4-1.9,1-3.8,1.6-5.7c0.7-1.8,1.4-3.6,2.1-5.3c0.4-0.9,0.7-1.7,1-2.5
		c0.4-0.8,0.7-1.6,1-2.4c0.6-1.6,1.2-3.1,1.5-4.5c1.5-5.4,2-9.6,2.1-12.6C801.7,76.8,801.4,74.8,801,73.8z"/>
	<path fill="none" stroke="#405230" stroke-width="3" stroke-linecap="round" stroke-miterlimit="10" d="M787,102.6
		c-6,13.8-10.5,27.6-13.7,41.2c-3.1,13.6-4.7,27.1-4.8,40c-0.2,13,1.2,25.4,3.5,37.1c2.3,11.7,5.5,22.7,8.8,33.1
		c3.4,10.3,6.9,20.1,10.3,29.3c3.4,9.2,6.7,18,9.8,26.2c6.2,16.5,11.9,31.2,16.9,44.1c20.1,51.5,30.7,74.3,30.7,74.3"/>
</g>
</svg>
